<svg width="63" height="82" fill="none" xmlns="http://www.w3.org/2000/svg"><path d="M5 82a5 5 0 01-5-5V5a5 5 0 015-5h41.754a5 5 0 014.798 3.595l10.537 36a5 5 0 010 2.81l-10.537 36A5 5 0 0146.754 82H5z" fill="#005AFF"/><path d="M19.823 35.966s.79-4.474 2.763-4.545c1.974-.07 4.428 2.345 5.28.995.854-1.35 2.4-1.918 5.547-2.273 3.146-.355 1.813-2.77 3.787-1.988 1.973.782 5.652 6.534 5.812 7.813M40.598 53.02c0 1.719 1.545 3.11 3.451 3.11 1.906 0 3.451-1.392 3.451-3.11 0-1.716-1.545-3.109-3.451-3.109-1.907 0-3.45 1.393-3.45 3.11z" stroke="#fff" stroke-width="2" stroke-miterlimit="10" stroke-linecap="round" stroke-linejoin="round"/><path d="M10 35.966h3.865l6.984 20.165h2.358l3.358-6.78" stroke="#fff" stroke-width="2" stroke-linecap="round" stroke-linejoin="round"/><path d="M17.023 45.085s20.898 14.662 29.27-6.635H14.727" stroke="#fff" stroke-width="2" stroke-miterlimit="10" stroke-linecap="round" stroke-linejoin="round"/></svg>