<svg width="63" height="82" fill="none" xmlns="http://www.w3.org/2000/svg"><path d="M5 82a5 5 0 01-5-5V5a5 5 0 015-5h41.754a5 5 0 014.798 3.595l10.537 36a5 5 0 010 2.81l-10.537 36A5 5 0 0146.754 82H5z" fill="#005AFF"/><path d="M42.8 33.44l-15.52-8.96-15.52 8.96v17.922l15.52 8.96 15.52-8.96V33.44z" stroke="#fff" stroke-width="2" stroke-miterlimit="10" stroke-linecap="round" stroke-linejoin="round"/><path d="M37.867 24.065H16.694L6.107 42.4l10.587 18.337h21.173L48.453 42.4 37.867 24.064z" stroke="#fff" stroke-width="2" stroke-miterlimit="10" stroke-linecap="round" stroke-linejoin="round"/><path d="M16.453 34.86l7.001 16 7-16m3.999 0v16" stroke="#fff" stroke-width="2" stroke-miterlimit="10" stroke-linecap="round" stroke-linejoin="round"/></svg>