<svg width="63" height="82" fill="none" xmlns="http://www.w3.org/2000/svg"><path d="M5 82a5 5 0 01-5-5V5a5 5 0 015-5h41.754a5 5 0 014.798 3.595l10.537 36a5 5 0 010 2.81l-10.537 36A5 5 0 0146.754 82H5z" fill="#005AFF"/><path d="M42.708 53.466a17.406 17.406 0 002.306-3.594 17.278 17.278 0 001.71-7.51c0-2.013-.36-3.937-.989-5.736C43.365 29.86 36.939 25 29.363 25c-7.589 0-14.023 4.876-16.385 11.66A17.294 17.294 0 0012 42.364c0 2.675.61 5.207 1.69 7.47a17.458 17.458 0 002.327 3.635" stroke="#fff" stroke-width="2" stroke-linecap="round" stroke-linejoin="round"/><path d="M36.027 55.967c0 .825-.668 1.493-1.493 1.493H24.192a1.493 1.493 0 01-1.493-1.493V53.03c0-.824.668-1.493 1.493-1.493h10.342c.825 0 1.493.669 1.493 1.493v2.938zm10.698-12.989H42.2m-25.489 0H12m6.397 5.602l-4.071 2.35M37.993 27.3l-2.236 3.872M29.363 25v4.505m-8.63-2.205l2.281 3.952m-8.625 2.351l4.008 2.314M40.469 48.66l3.984 2.285M31.968 44.09a2.834 2.834 0 11-5.212-2.225 2.834 2.834 0 015.212 2.224zm-.226-2.65l10.027-6.473" stroke="#fff" stroke-width="2" stroke-miterlimit="10" stroke-linecap="round" stroke-linejoin="round"/></svg>