<svg width="63" height="82" fill="none" xmlns="http://www.w3.org/2000/svg"><path d="M5 82a5 5 0 01-5-5V5a5 5 0 015-5h41.754a5 5 0 014.798 3.595l10.537 36a5 5 0 010 2.81l-10.537 36A5 5 0 0146.754 82H5z" fill="#005AFF"/><path d="M13.639 38.788c0 1.595.27 2.853.757 4.283a2.418 2.418 0 00.986 4.626l.042-.002c.5 6.372 7.743 11.751 12.327 11.751 4.704 0 11.826-5.378 12.326-11.75h.042a2.419 2.419 0 00.986-4.625c.49-1.43.758-2.688.758-4.284" stroke="#fff" stroke-width="2" stroke-linecap="round" stroke-linejoin="round"/><path d="M18.074 39.987l-.348 4.022s-1.32-1.823-3.33-.939m23.072-3.153l.353 4.092s1.32-1.823 3.33-.939" stroke="#fff" stroke-width="2" stroke-miterlimit="10" stroke-linecap="round" stroke-linejoin="round"/><path d="M22.722 21.495c-5.367 1.5-8.672 5.79-9.757 11.13A2.974 2.974 0 0010 35.592c0 1.63 1.259 2.418 2.965 2.965 15.243 5.37 29.57 0 29.57 0 1.63-.492 2.965-1.334 2.965-2.965a2.974 2.974 0 00-2.965-2.965c-1.083-5.341-4.333-9.631-9.699-11.131" stroke="#fff" stroke-width="2" stroke-miterlimit="10" stroke-linecap="round" stroke-linejoin="round"/><path d="M29.405 32.163h-3.25a3.432 3.432 0 01-3.433-3.433v-7.297A3.432 3.432 0 0126.154 18h3.251a3.432 3.432 0 013.432 3.433v7.297a3.433 3.433 0 01-3.432 3.433z" stroke="#fff" stroke-width="2" stroke-miterlimit="10" stroke-linecap="round" stroke-linejoin="round"/><path d="M25.965 52.537h3.658" stroke="#fff" stroke-width="2" stroke-miterlimit="3.864" stroke-linecap="round" stroke-linejoin="round"/><path d="M30.406 40.996s-1.592.415-1.592 2.521c0 2.65 2.953 5.04 5.264 5.04 2.31 0 3.698-1.403 3.543-4.469-.154-3.066-2.619-3.092-2.619-3.092h-14.56s-2.465.026-2.62 3.092c-.154 3.066 1.234 4.47 3.544 4.47 2.312 0 5.264-2.392 5.264-5.04 0-2.105-1.592-2.522-1.592-2.522" stroke="#fff" stroke-width="2" stroke-miterlimit="10" stroke-linecap="round" stroke-linejoin="round"/></svg>