<svg width="63" height="82" fill="none" xmlns="http://www.w3.org/2000/svg"><path d="M5 82a5 5 0 01-5-5V5a5 5 0 015-5h41.754a5 5 0 014.798 3.595l10.537 36a5 5 0 010 2.81l-10.537 36A5 5 0 0146.754 82H5z" fill="#005AFF"/><path d="M44.128 20.505a1 1 0 00-1.36.312l-1.746 2.7a1 1 0 00-.16.544v3.905a1 1 0 01-.102.438l-5.633 11.538a1 1 0 01-.298.361l-7.613 5.71a1 1 0 00-.303 1.23l.649 1.36a1 1 0 01-.141 1.078l-2.24 2.634a1 1 0 01-.467.308l-3.524 1.085a1 1 0 00-.582.473l-2.371 4.304a1 1 0 01-.662.494l-7.282 1.596a1 1 0 00-.667 1.45l.355.662a1 1 0 00.73.515l4.923.755a1 1 0 00.539-.066l6.102-2.56a1 1 0 00.45-.376l1.609-2.468a1 1 0 00.153-.41l.263-1.91a1 1 0 01.99-.863h1.46a1 1 0 00.597-.198l4.787-3.56c.043-.033.083-.069.121-.107l4.865-5.026a.964.964 0 01.208-.164l1.733-1.03a1 1 0 00.376-1.322l-.152-.291a1 1 0 01.383-1.327l1.145-.668a.999.999 0 00.41-.458l1.526-3.437a1 1 0 00.085-.46l-.245-4.498a1 1 0 01.051-.375l1.445-4.272c.027-.081.044-.166.05-.251l.266-3.825a.998.998 0 01.11-.392l.608-1.17a1 1 0 00-.368-1.315l-1.073-.653z" stroke="#fff" stroke-width="2" stroke-miterlimit="10" stroke-linecap="round" stroke-linejoin="round"/></svg>