<svg width="63" height="82" fill="none" xmlns="http://www.w3.org/2000/svg"><path d="M5 82a5 5 0 01-5-5V5a5 5 0 015-5h41.754a5 5 0 014.798 3.595l10.537 36a5 5 0 010 2.81l-10.537 36A5 5 0 0146.754 82H5z" fill="#005AFF"/><path d="M29.25 57.333V26m5.045 26.18l-5.045 5.153-5.045-5.154M13 26h32.5M13 57.333h4.919M13 41.666h4.919M13 33.833h3.002M13 49.229h3.002M45.5 57.333h-4.919M45.5 41.666h-4.919m4.919-7.833h-3.003M45.5 49.229h-3.003" stroke="#fff" stroke-width="2" stroke-miterlimit="10" stroke-linecap="round" stroke-linejoin="round"/></svg>