<svg width="66" height="35" fill="none" xmlns="http://www.w3.org/2000/svg"><path d="M10.983 33.65a5.272 5.272 0 100-10.545 5.272 5.272 0 000 10.544zm28.819 0a5.272 5.272 0 100-10.545 5.272 5.272 0 000 10.544z" stroke="#37455C" stroke-width="2" stroke-miterlimit="10" stroke-linecap="round" stroke-linejoin="round"/><path d="M50.345 33.65a5.272 5.272 0 100-10.545 5.272 5.272 0 000 10.544zm-34.09-6.444h18.407" stroke="#37455C" stroke-width="2" stroke-miterlimit="10" stroke-linecap="round" stroke-linejoin="round"/><path d="M55.617 27.206l6.91-3.012v-3.915H13.72V8.122H4.94l-3.76 8.685v9.914h4.724m57.271-11.828L12.063 5.272a1.324 1.324 0 01-1.056-1.548l.253-1.348a1.324 1.324 0 011.548-1.056l51.112 9.621c.72.136 1.192.828 1.057 1.548l-.253 1.348a1.328 1.328 0 01-1.549 1.056zM33.939 9.389v10.89" stroke="#37455C" stroke-width="2" stroke-miterlimit="10" stroke-linecap="round" stroke-linejoin="round"/><path d="M13.72 12.295h3.342l2.788 7.984m14.089-6.945h4.875l2.182 6.945m21.531.001v-5.51m-5.788 5.509v-6.651m-3.222 6.651v-3.993H44.06v3.993m-24.21.001v6.926m8.833-6.926v6.926" stroke="#37455C" stroke-width="2" stroke-miterlimit="10" stroke-linecap="round" stroke-linejoin="round"/></svg>