<svg width="37" height="35" fill="none" xmlns="http://www.w3.org/2000/svg"><path d="M31.708 29.466a17.406 17.406 0 002.306-3.594 17.278 17.278 0 001.71-7.51c0-2.013-.36-3.937-.989-5.736C32.365 5.86 25.939 1 18.363 1 10.774 1 4.34 5.876 1.978 12.66A17.295 17.295 0 001 18.364c0 2.675.61 5.207 1.69 7.47a17.46 17.46 0 002.327 3.635" stroke="#37455C" stroke-width="2" stroke-linecap="round" stroke-linejoin="round"/><path d="M25.027 31.967c0 .825-.668 1.493-1.493 1.493H13.192a1.493 1.493 0 01-1.493-1.493v-2.938c0-.825.668-1.493 1.493-1.493h10.342c.825 0 1.493.668 1.493 1.493v2.938zm10.698-12.988H31.2m-25.489 0H1m6.397 5.601l-4.071 2.35M26.993 3.3l-2.236 3.872M18.363 1v4.505M9.733 3.3l2.281 3.953m-8.625 2.35l4.008 2.314M29.469 24.66l3.984 2.285M20.968 20.09a2.834 2.834 0 11-5.212-2.225 2.834 2.834 0 015.212 2.225zm-.226-2.65l10.027-6.473" stroke="#37455C" stroke-width="2" stroke-miterlimit="10" stroke-linecap="round" stroke-linejoin="round"/></svg>