<svg width="43" height="33" fill="none" xmlns="http://www.w3.org/2000/svg"><path d="M11.608 9.604s.854-4.833 2.985-4.909c2.131-.076 4.782 2.532 5.702 1.074.922-1.458 2.593-2.072 5.99-2.454 3.4-.384 1.96-2.992 4.09-2.148 2.132.845 6.106 7.057 6.278 8.438m-2.607 18.417c0 1.856 1.669 3.359 3.727 3.359s3.727-1.505 3.727-3.359-1.669-3.358-3.727-3.358c-2.06 0-3.727 1.504-3.727 3.358z" stroke="#37455C" stroke-width="2" stroke-miterlimit="10" stroke-linecap="round" stroke-linejoin="round"/><path d="M1 9.604h4.175l7.541 21.779h2.548l3.626-7.322" stroke="#37455C" stroke-width="2" stroke-linecap="round" stroke-linejoin="round"/><path d="M8.585 19.452s22.57 15.836 31.612-7.166H6.104" stroke="#37455C" stroke-width="2" stroke-miterlimit="10" stroke-linecap="round" stroke-linejoin="round"/></svg>