<?xml version="1.0" encoding="utf-8"?><svg viewBox="0 0 268 112" xmlns="http://www.w3.org/2000/svg" xmlns:xlink="http://www.w3.org/1999/xlink"><style>:root>svg{display:none}:root>svg:target{display:block}</style><svg fill="none" viewBox="0 0 25 14" id="arrow" xmlns="http://www.w3.org/2000/svg"><g opacity=".5" stroke="#fff" stroke-width="2" stroke-linecap="round" stroke-linejoin="round"><path d="M17.606 1l5.504 5.504-5.504 5.504M23 6.504H1"/></g></svg><svg fill="none" viewBox="0 0 36 36" id="bank" xmlns="http://www.w3.org/2000/svg"><path d="M18 29.865v-13.53M11.348 29.865v-13.53M4.696 29.865v-13.53M24.652 29.865v-13.53M31.304 29.865v-13.53M35 15.783H1L18.024 1 35 15.783zM35 30.565H1V35h34v-4.435z" stroke="#005AFF" stroke-width="2" stroke-miterlimit="10" stroke-linecap="round" stroke-linejoin="round"/></svg><svg fill="none" viewBox="0 0 32 30" id="best-decision" xmlns="http://www.w3.org/2000/svg"><path d="M16 1l5.009 8.713L31 11.695l-6.896 7.367L25.271 29 16 24.84 6.73 29l1.166-9.938L1 11.695l9.992-1.982L16 1z" stroke="#fff" stroke-width="2" stroke-miterlimit="10" stroke-linecap="round" stroke-linejoin="round"/><path d="M13 16l2.64 2L19 14" stroke="#fff" stroke-width="2" stroke-linecap="round" stroke-linejoin="round"/></svg><svg fill="none" viewBox="0 0 268 112" id="btn-blue" xmlns="http://www.w3.org/2000/svg"><path d="M0 0h268l-31.309 106.261a8 8 0 01-7.674 5.739H0V0z" fill="#005AFF"/></svg><svg fill="none" viewBox="0 0 268 112" id="btn-grey" xmlns="http://www.w3.org/2000/svg"><path d="M268 0H0l31.31 106.261A8 8 0 0038.982 112H268V0z" fill="#37455C"/></svg><svg fill="none" viewBox="0 0 48 32" id="coins" xmlns="http://www.w3.org/2000/svg"><path d="M31 16c0-8.284-6.718-15-15.001-15C7.715 1 1 7.716 1 16c0 8.285 6.715 15 14.999 15C24.282 31 31 24.285 31 16z" stroke="#005AFF" stroke-width="2" stroke-miterlimit="10" stroke-linecap="round" stroke-linejoin="round"/><path d="M28.004 30.462a14.99 14.99 0 003.995.538C40.282 31 47 24.285 47 16c0-8.284-6.718-15-15.001-15-1.384 0-2.727.188-4 .539" stroke="#005AFF" stroke-width="2" stroke-miterlimit="10" stroke-linecap="round" stroke-linejoin="round"/><path d="M20.004 30.462a14.99 14.99 0 003.995.538C32.282 31 39 24.285 39 16c0-8.284-6.718-15-15.001-15-1.384 0-2.727.188-4 .539" stroke="#005AFF" stroke-width="2" stroke-miterlimit="10" stroke-linecap="round" stroke-linejoin="round"/><path d="M12.25 24V9.333h5.25a3.667 3.667 0 010 7.334H9M9 21h7" stroke="#005AFF" stroke-width="2" stroke-miterlimit="10" stroke-linecap="round" stroke-linejoin="round"/></svg><svg fill="none" viewBox="0 0 24 28" id="deep" xmlns="http://www.w3.org/2000/svg"><path d="M15.3 17.85c4.415.572 7.7 2.447 7.7 4.4 0 2.429-4.925 4.4-11 4.4-6.077 0-11-1.971-11-4.4 0-1.953 3.283-3.828 7.7-4.4M11.998 1.35a4.4 4.4 0 10.002 8.8 4.4 4.4 0 10-.002-8.8zM12 22.25v-12.1" stroke="#fff" stroke-width="2" stroke-miterlimit="10" stroke-linecap="round" stroke-linejoin="round"/></svg><svg fill="none" viewBox="0 0 21 21" id="garniture" xmlns="http://www.w3.org/2000/svg"><path d="M4.455 15.682a.866.866 0 01-.864.864H1.864A.866.866 0 011 15.681v-3.455c0-.475.389-.863.864-.863H3.59c.475 0 .864.388.864.863v3.455zM1 12.227V10.5M1 10.5C1 5.258 5.258 1 10.5 1c5.25 0 9.5 4.258 9.5 9.5M16.546 15.682c0 .475.388.864.863.864h1.727a.866.866 0 00.864-.864v-3.455a.866.866 0 00-.864-.863H17.41a.866.866 0 00-.863.863v3.455zM20 12.227V10.5M11.364 19.136H9.636V20h1.728v-.864z" stroke="#37455C" stroke-width="2" stroke-miterlimit="10" stroke-linecap="round" stroke-linejoin="round"/><path d="M20 11.14v6.27L13.954 20H11.13" stroke="#37455C" stroke-width="2" stroke-miterlimit="10" stroke-linecap="round" stroke-linejoin="round"/></svg><svg fill="none" viewBox="0 0 14 22" id="icon-phone" xmlns="http://www.w3.org/2000/svg"><path d="M13 19.333C13 20.25 12.229 21 11.286 21H2.715C1.772 21 1 20.25 1 19.333V2.667C1 1.75 1.772 1 2.715 1h8.571C12.23 1 13 1.75 13 2.667v16.666zM5.636 5H8.91" stroke="#fff" stroke-width="2" stroke-miterlimit="10" stroke-linecap="round" stroke-linejoin="round"/><path d="M7 18.09A.545.545 0 107 17a.545.545 0 000 1.09z" stroke="#fff" stroke-width="2" stroke-miterlimit="10" stroke-linecap="round" stroke-linejoin="round"/></svg><svg fill="none" viewBox="0 0 25 40" id="lightning" xmlns="http://www.w3.org/2000/svg"><path d="M8.833 38.865l14.975-21.018c.411-.595.14-.8-.605-.8h-7.067c-.744 0-1.255-.71-1.133-1.416l2.429-14.4" stroke="#FF003D" stroke-width="2" stroke-miterlimit="10" stroke-linecap="round" stroke-linejoin="round"/><path d="M17.432 1.152L1.286 21.694c-.453.57-.213 1.093.532 1.093h7.82c.745 0 1.309.382 1.25 1.097L8.832 38.945" stroke="#FF003D" stroke-width="2" stroke-miterlimit="10" stroke-linecap="round" stroke-linejoin="round"/></svg><svg fill="none" viewBox="0 0 36 34" id="pipe-1" xmlns="http://www.w3.org/2000/svg"><path d="M34.259 29.135c0 2.066-7.445 3.74-16.63 3.74C8.446 32.874 1 31.2 1 29.134" stroke="#37455C" stroke-width="2" stroke-miterlimit="10" stroke-linecap="round" stroke-linejoin="round"/><path d="M34.259 1.374C34.259-.693 1 6.39 1 8.457v20.678M34.259 1.373v27.762M1 8.456c0 4.513 33.259-.593 33.259-7.083M5.581 26.454v-4.2M11.606 22.68v-4.2M11.606 27.578v-1.24M23.601 27.578v-1.24M23.601 22.68v-4.2M29.574 26.454v-4.2M17.63 26.454v-4.2" stroke="#37455C" stroke-width="2" stroke-miterlimit="10" stroke-linecap="round" stroke-linejoin="round"/></svg><svg fill="none" viewBox="0 0 36 49" id="pipe-2" xmlns="http://www.w3.org/2000/svg"><path d="M35 29.135c0 2.066-7.445 3.74-16.63 3.74-9.184 0-16.629-1.674-16.629-3.74" stroke="#37455C" stroke-width="2" stroke-miterlimit="10" stroke-linecap="round" stroke-linejoin="round"/><path d="M35 1.374C35-.693 1.741 6.39 1.741 8.457v20.678M35 1.373v27.762M1.741 8.456C1.741 12.97 35 7.863 35 1.373M31.808 44.09c0 1.669-6.016 3.022-13.437 3.022-7.421 0-13.437-1.353-13.437-3.022M4.934 31.338V44.09M31.808 31.332V44.09M8.636 42.023V38.63M13.503 38.972v-3.394M13.503 42.93v-1.002M23.196 42.93v-1.002M23.196 38.972v-3.394M28.02 42.023V38.63M18.37 42.023V38.63" stroke="#37455C" stroke-width="2" stroke-miterlimit="10" stroke-linecap="round" stroke-linejoin="round"/></svg><svg fill="none" viewBox="0 0 28 28" id="rub" xmlns="http://www.w3.org/2000/svg"><path d="M27 14c0-7.18-5.822-13-13-13C6.82 1 1 6.82 1 14s5.82 13 13 13c7.178 0 13-5.82 13-13z" stroke="#fff" stroke-width="2" stroke-miterlimit="10" stroke-linecap="round" stroke-linejoin="round"/><path d="M10.75 20.933V8.222h4.55a3.178 3.178 0 010 6.356H7.933M7.933 18.333H14" stroke="#fff" stroke-width="2" stroke-miterlimit="10" stroke-linecap="round" stroke-linejoin="round"/></svg><svg fill="none" viewBox="0 0 12 10" id="success-mark" xmlns="http://www.w3.org/2000/svg"><path d="M1 5l4.4 3.5 5.6-7" stroke="#005AFF" stroke-width="2" stroke-linecap="round" stroke-linejoin="round"/></svg><svg fill="none" viewBox="0 0 12 10" id="success-mark-white" xmlns="http://www.w3.org/2000/svg"><path d="M1 5l4.4 3.5 5.6-7" stroke="#fff" stroke-width="2" stroke-linecap="round" stroke-linejoin="round"/></svg><svg fill="none" viewBox="0 0 10 10" id="telegram-dot" xmlns="http://www.w3.org/2000/svg"><circle cx="5" cy="5" r="5" fill="#2CA0DA"/></svg><svg fill="none" viewBox="0 0 10 10" id="viber-dot" xmlns="http://www.w3.org/2000/svg"><circle cx="5" cy="5" r="5" fill="#7D3DAF"/></svg><svg fill="none" viewBox="0 0 10 10" id="whatsapp-dot" xmlns="http://www.w3.org/2000/svg"><circle cx="5" cy="5" r="5" fill="#1FB69F"/></svg><svg fill="none" viewBox="0 0 11 12" id="x-mark" xmlns="http://www.w3.org/2000/svg"><path d="M1 1.5l9 9M10 1.5l-9 9" stroke="#fff" stroke-width="2" stroke-linecap="round" stroke-linejoin="round"/></svg><svg fill="none" viewBox="0 0 7 7" id="x-mark-red" xmlns="http://www.w3.org/2000/svg"><path d="M1 1l5 5M6 1L1 6" stroke="#E75855" stroke-width="2" stroke-linecap="round" stroke-linejoin="round"/></svg></svg>