<?xml version="1.0" encoding="utf-8"?><svg viewBox="0 0 268 112" xmlns="http://www.w3.org/2000/svg" xmlns:xlink="http://www.w3.org/1999/xlink"><style>:root>svg{display:none}:root>svg:target{display:block}</style><svg fill="none" viewBox="0 0 63 82" id="adv1" xmlns="http://www.w3.org/2000/svg"><path d="M5 82a5 5 0 01-5-5V5a5 5 0 015-5h41.754a5 5 0 014.798 3.595l10.537 36a5 5 0 010 2.81l-10.537 36A5 5 0 0146.754 82H5z" fill="#005AFF"/><path d="M13.639 38.788c0 1.595.27 2.853.757 4.283a2.418 2.418 0 00.986 4.626l.042-.002c.5 6.372 7.743 11.751 12.327 11.751 4.704 0 11.826-5.378 12.326-11.75h.042a2.419 2.419 0 00.986-4.625c.49-1.43.758-2.688.758-4.284" stroke="#fff" stroke-width="2" stroke-linecap="round" stroke-linejoin="round"/><path d="M18.074 39.987l-.348 4.022s-1.32-1.823-3.33-.939M37.468 39.917l.353 4.092s1.32-1.823 3.33-.939" stroke="#fff" stroke-width="2" stroke-miterlimit="10" stroke-linecap="round" stroke-linejoin="round"/><path d="M22.722 21.495c-5.367 1.5-8.672 5.79-9.757 11.13A2.974 2.974 0 0010 35.592c0 1.63 1.259 2.418 2.965 2.965 15.243 5.37 29.57 0 29.57 0 1.63-.492 2.965-1.334 2.965-2.965a2.974 2.974 0 00-2.965-2.965c-1.083-5.341-4.333-9.631-9.699-11.131" stroke="#fff" stroke-width="2" stroke-miterlimit="10" stroke-linecap="round" stroke-linejoin="round"/><path d="M29.405 32.163h-3.25a3.432 3.432 0 01-3.433-3.433v-7.297A3.432 3.432 0 0126.154 18h3.251a3.432 3.432 0 013.432 3.433v7.297a3.433 3.433 0 01-3.432 3.433z" stroke="#fff" stroke-width="2" stroke-miterlimit="10" stroke-linecap="round" stroke-linejoin="round"/><path d="M25.965 52.537h3.658" stroke="#fff" stroke-width="2" stroke-miterlimit="3.864" stroke-linecap="round" stroke-linejoin="round"/><path d="M30.406 40.996s-1.592.415-1.592 2.521c0 2.65 2.953 5.04 5.264 5.04 2.31 0 3.698-1.403 3.543-4.469-.154-3.066-2.619-3.092-2.619-3.092h-14.56s-2.465.026-2.62 3.092c-.154 3.066 1.234 4.47 3.544 4.47 2.312 0 5.264-2.392 5.264-5.04 0-2.105-1.592-2.522-1.592-2.522" stroke="#fff" stroke-width="2" stroke-miterlimit="10" stroke-linecap="round" stroke-linejoin="round"/></svg><svg fill="none" viewBox="0 0 63 82" id="adv2" xmlns="http://www.w3.org/2000/svg"><path d="M5 82a5 5 0 01-5-5V5a5 5 0 015-5h41.754a5 5 0 014.798 3.595l10.537 36a5 5 0 010 2.81l-10.537 36A5 5 0 0146.754 82H5z" fill="#005AFF"/><path d="M42.708 53.466a17.406 17.406 0 002.306-3.594 17.278 17.278 0 001.71-7.51c0-2.013-.36-3.937-.989-5.736C43.365 29.86 36.939 25 29.363 25c-7.589 0-14.023 4.876-16.385 11.66A17.294 17.294 0 0012 42.364c0 2.675.61 5.207 1.69 7.47a17.458 17.458 0 002.327 3.635" stroke="#fff" stroke-width="2" stroke-linecap="round" stroke-linejoin="round"/><path d="M36.027 55.967c0 .825-.668 1.493-1.493 1.493H24.192a1.493 1.493 0 01-1.493-1.493V53.03c0-.824.668-1.493 1.493-1.493h10.342c.825 0 1.493.669 1.493 1.493v2.938zM46.725 42.978H42.2M16.711 42.978H12M18.397 48.58l-4.071 2.35M37.993 27.3l-2.236 3.872M29.363 25v4.505M20.733 27.3l2.281 3.952M14.389 33.603l4.008 2.314M40.469 48.66l3.984 2.285M31.968 44.09a2.834 2.834 0 11-5.212-2.225 2.834 2.834 0 015.212 2.224zM31.742 41.44l10.027-6.473" stroke="#fff" stroke-width="2" stroke-miterlimit="10" stroke-linecap="round" stroke-linejoin="round"/></svg><svg fill="none" viewBox="0 0 63 82" id="adv3" xmlns="http://www.w3.org/2000/svg"><path d="M5 82a5 5 0 01-5-5V5a5 5 0 015-5h41.754a5 5 0 014.798 3.595l10.537 36a5 5 0 010 2.81l-10.537 36A5 5 0 0146.754 82H5z" fill="#005AFF"/><path d="M44.128 20.505a1 1 0 00-1.36.312l-1.746 2.7a1 1 0 00-.16.544v3.905a1 1 0 01-.102.438l-5.633 11.538a1 1 0 01-.298.361l-7.613 5.71a1 1 0 00-.303 1.23l.649 1.36a1 1 0 01-.141 1.078l-2.24 2.634a1 1 0 01-.467.308l-3.524 1.085a1 1 0 00-.582.473l-2.371 4.304a1 1 0 01-.662.494l-7.282 1.596a1 1 0 00-.667 1.45l.355.662a1 1 0 00.73.515l4.923.755a1 1 0 00.539-.066l6.102-2.56a1 1 0 00.45-.376l1.609-2.468a1 1 0 00.153-.41l.263-1.91a1 1 0 01.99-.863h1.46a1 1 0 00.597-.198l4.787-3.56c.043-.033.083-.069.121-.107l4.865-5.026c.062-.064.132-.12.208-.164l1.733-1.03a1 1 0 00.376-1.322l-.152-.291a1 1 0 01.383-1.327l1.145-.668a.999.999 0 00.41-.458l1.526-3.437a1 1 0 00.085-.46l-.245-4.498a1 1 0 01.051-.375l1.445-4.272c.027-.081.044-.166.05-.251l.266-3.825a.998.998 0 01.11-.392l.608-1.17a1 1 0 00-.368-1.315l-1.073-.653z" stroke="#fff" stroke-width="2" stroke-miterlimit="10" stroke-linecap="round" stroke-linejoin="round"/></svg><svg fill="none" viewBox="0 0 63 82" id="adv4" xmlns="http://www.w3.org/2000/svg"><path d="M5 82a5 5 0 01-5-5V5a5 5 0 015-5h41.754a5 5 0 014.798 3.595l10.537 36a5 5 0 010 2.81l-10.537 36A5 5 0 0146.754 82H5z" fill="#005AFF"/><path d="M19.823 35.966s.79-4.474 2.763-4.545c1.974-.07 4.428 2.345 5.28.995.854-1.35 2.4-1.918 5.547-2.273 3.146-.355 1.813-2.77 3.787-1.988 1.973.782 5.652 6.534 5.812 7.813M40.598 53.02c0 1.719 1.545 3.11 3.451 3.11 1.906 0 3.451-1.392 3.451-3.11 0-1.716-1.545-3.109-3.451-3.109-1.907 0-3.45 1.393-3.45 3.11z" stroke="#fff" stroke-width="2" stroke-miterlimit="10" stroke-linecap="round" stroke-linejoin="round"/><path d="M10 35.966h3.865l6.984 20.165h2.358l3.358-6.78" stroke="#fff" stroke-width="2" stroke-linecap="round" stroke-linejoin="round"/><path d="M17.023 45.085s20.898 14.662 29.27-6.635H14.727" stroke="#fff" stroke-width="2" stroke-miterlimit="10" stroke-linecap="round" stroke-linejoin="round"/></svg><svg fill="none" viewBox="0 0 63 82" id="adv5" xmlns="http://www.w3.org/2000/svg"><path d="M5 82a5 5 0 01-5-5V5a5 5 0 015-5h41.754a5 5 0 014.798 3.595l10.537 36a5 5 0 010 2.81l-10.537 36A5 5 0 0146.754 82H5z" fill="#005AFF"/><path d="M42.8 33.44l-15.52-8.96-15.52 8.96v17.922l15.52 8.96 15.52-8.96V33.44z" stroke="#fff" stroke-width="2" stroke-miterlimit="10" stroke-linecap="round" stroke-linejoin="round"/><path d="M37.867 24.065H16.694L6.107 42.4l10.587 18.337h21.173l10.586-18.337-10.586-18.336z" stroke="#fff" stroke-width="2" stroke-miterlimit="10" stroke-linecap="round" stroke-linejoin="round"/><path d="M16.453 34.86l7.001 16 7-16M34.453 34.86v16" stroke="#fff" stroke-width="2" stroke-miterlimit="10" stroke-linecap="round" stroke-linejoin="round"/></svg><svg fill="none" viewBox="0 0 63 82" id="adv6" xmlns="http://www.w3.org/2000/svg"><path d="M5 82a5 5 0 01-5-5V5a5 5 0 015-5h41.754a5 5 0 014.798 3.595l10.537 36a5 5 0 010 2.81l-10.537 36A5 5 0 0146.754 82H5z" fill="#005AFF"/><path d="M29.25 57.333V26M34.295 52.18l-5.045 5.153-5.045-5.154M13 26h32.5M13 57.333h4.919M13 41.666h4.919M13 33.833h3.002M13 49.229h3.002M45.5 57.333h-4.919M45.5 41.666h-4.919M45.5 33.833h-3.003M45.5 49.229h-3.003" stroke="#fff" stroke-width="2" stroke-miterlimit="10" stroke-linecap="round" stroke-linejoin="round"/></svg><svg fill="none" viewBox="0 0 25 14" id="arrow" xmlns="http://www.w3.org/2000/svg"><g opacity=".5" stroke="#fff" stroke-width="2" stroke-linecap="round" stroke-linejoin="round"><path d="M17.606 1l5.504 5.504-5.504 5.504M23 6.504H1"/></g></svg><svg fill="none" viewBox="0 0 268 112" id="btn-blue" xmlns="http://www.w3.org/2000/svg"><path d="M0 0h268l-31.309 106.261a8 8 0 01-7.674 5.739H0V0z" fill="#005AFF"/></svg><svg fill="none" viewBox="0 0 268 112" id="btn-grey" xmlns="http://www.w3.org/2000/svg"><path d="M268 0H0l31.31 106.261A8 8 0 0038.982 112H268V0z" fill="#37455C"/></svg><svg fill="none" viewBox="0 0 24 28" id="deep" xmlns="http://www.w3.org/2000/svg"><path d="M15.3 17.85c4.415.572 7.7 2.447 7.7 4.4 0 2.429-4.925 4.4-11 4.4-6.077 0-11-1.971-11-4.4 0-1.953 3.283-3.828 7.7-4.4M11.998 1.35a4.4 4.4 0 10.002 8.8 4.4 4.4 0 10-.002-8.8zM12 22.25v-12.1" stroke="#fff" stroke-width="2" stroke-miterlimit="10" stroke-linecap="round" stroke-linejoin="round"/></svg><svg fill="none" viewBox="0 0 21 21" id="garniture" xmlns="http://www.w3.org/2000/svg"><path d="M4.455 15.682a.866.866 0 01-.864.864H1.864A.866.866 0 011 15.681v-3.455c0-.475.389-.863.864-.863H3.59c.475 0 .864.388.864.863v3.455zM1 12.227V10.5M1 10.5C1 5.258 5.258 1 10.5 1c5.25 0 9.5 4.258 9.5 9.5M16.546 15.682c0 .475.388.864.863.864h1.727a.866.866 0 00.864-.864v-3.455a.866.866 0 00-.864-.863H17.41a.866.866 0 00-.863.863v3.455zM20 12.227V10.5M11.364 19.136H9.636V20h1.728v-.864z" stroke="#37455C" stroke-width="2" stroke-miterlimit="10" stroke-linecap="round" stroke-linejoin="round"/><path d="M20 11.14v6.27L13.954 20H11.13" stroke="#37455C" stroke-width="2" stroke-miterlimit="10" stroke-linecap="round" stroke-linejoin="round"/></svg><svg fill="none" viewBox="0 0 14 22" id="icon-phone" xmlns="http://www.w3.org/2000/svg"><path d="M13 19.333C13 20.25 12.229 21 11.286 21H2.715C1.772 21 1 20.25 1 19.333V2.667C1 1.75 1.772 1 2.715 1h8.571C12.23 1 13 1.75 13 2.667v16.666zM5.636 5H8.91" stroke="#fff" stroke-width="2" stroke-miterlimit="10" stroke-linecap="round" stroke-linejoin="round"/><path d="M7 18.09A.545.545 0 107 17a.545.545 0 000 1.09z" stroke="#fff" stroke-width="2" stroke-miterlimit="10" stroke-linecap="round" stroke-linejoin="round"/></svg><svg fill="none" viewBox="0 0 143 57" id="logo" xmlns="http://www.w3.org/2000/svg"><path d="M18.064 22.58a1 1 0 001 1h8.117a1 1 0 011 1v2.284a.945.945 0 01-.46.824c-1.955 1.133-4.179 1.525-6.837 1.525-7.137 0-11.62-3.818-11.62-10.608.007-6.784 4.483-10.609 11.62-10.609 2.634 0 4.842.38 6.784 1.493.321.185.716.204 1.04.026l6.425-3.523c.592-.325.697-1.132.168-1.553C31.937 1.762 26.882 0 20.427 0 8.01 0 .014 7.185 0 18.598v.027c.007 11.413 8.01 18.598 20.427 18.598 6.923 0 12.24-2.03 15.588-5.044a.964.964 0 00.314-.72V17.09a1 1 0 00-1-1H19.064a1 1 0 00-1 1v5.49zM64.712 31.212a1 1 0 00-.913-.592H50.801a1 1 0 00-.913.591l-2.083 4.658a1 1 0 01-.913.592h-7.497a1 1 0 01-.92-1.392L52.907 1.245a1 1 0 01.92-.607h6.953a1 1 0 01.92.607L76.13 35.068a1 1 0 01-.92 1.393h-7.503a1 1 0 01-.913-.592l-2.083-4.657zm-11.371-9.046a1 1 0 00.934 1.358h6.105a1 1 0 00.935-1.354l-3.034-8.012c-.325-.86-1.54-.862-1.869-.004l-3.071 8.012zM100.624 36.462v-.003l-6.303-9.202a.473.473 0 00-.39-.206H89.7a1 1 0 00-1 1v7.41a1 1 0 01-1 1h-6.807a1 1 0 01-1-1V1.686a1 1 0 011-1h13.793c9.916 0 15.244 4.677 15.244 13.186 0 5.196-2.017 8.791-5.662 10.911-.545.317-.732 1.038-.36 1.546l6.263 8.548a1 1 0 01-.807 1.59h-8.734c-.003 0-.006-.002-.006-.005zM88.7 19.7h5.134c4.878 0 6.846-2.418 6.846-5.335 0-3.977-1.864-6.042-6.59-6.042h-4.384a1 1 0 00-1 1v10.37a.007.007 0 01-.007.007zM141.802.63h-28.745a1 1 0 00-1 1v6.253a1 1 0 001 1h28.745a1 1 0 001-1V1.631a1 1 0 00-1-1z" fill="#37455C"/><path d="M132.003 33.235a1 1 0 001.548-.837v-3.22a.999.999 0 00-.451-.836l-6.241-4.092a1 1 0 01-.452-.836v-2.799a1 1 0 011.549-.836l4.047 2.654a1 1 0 001.548-.836V8.857a1 1 0 00-1-1h-10.146a1 1 0 00-1 1v16.885c0 .337.169.651.451.836l10.147 6.657zM122.953 32.973a1 1 0 00-1.548.836v3.387c0 .337.169.651.451.836l6.317 4.147a1 1 0 01.452.836v2.792a1 1 0 01-1.548.837l-4.124-2.703a1 1 0 00-1.548.836v5.502a1 1 0 00.318.732l5.07 4.728a1 1 0 001.364 0l5.076-4.728a1 1 0 00.318-.732v-9.814a.999.999 0 00-.451-.836l-10.147-6.656z" fill="#37455C"/></svg><svg fill="none" viewBox="0 0 28 28" id="rub" xmlns="http://www.w3.org/2000/svg"><path d="M27 14c0-7.18-5.822-13-13-13C6.82 1 1 6.82 1 14s5.82 13 13 13c7.178 0 13-5.82 13-13z" stroke="#fff" stroke-width="2" stroke-miterlimit="10" stroke-linecap="round" stroke-linejoin="round"/><path d="M10.75 20.933V8.222h4.55a3.178 3.178 0 010 6.356H7.933M7.933 18.333H14" stroke="#fff" stroke-width="2" stroke-miterlimit="10" stroke-linecap="round" stroke-linejoin="round"/></svg><svg fill="none" viewBox="0 0 12 10" id="success-mark" xmlns="http://www.w3.org/2000/svg"><path d="M1 5l4.4 3.5 5.6-7" stroke="#005AFF" stroke-width="2" stroke-linecap="round" stroke-linejoin="round"/></svg><svg fill="none" viewBox="0 0 10 10" id="telegram-dot" xmlns="http://www.w3.org/2000/svg"><circle cx="5" cy="5" r="5" fill="#2CA0DA"/></svg><svg fill="none" viewBox="0 0 10 10" id="viber-dot" xmlns="http://www.w3.org/2000/svg"><circle cx="5" cy="5" r="5" fill="#7D3DAF"/></svg><svg fill="none" viewBox="0 0 10 10" id="whatsapp-dot" xmlns="http://www.w3.org/2000/svg"><circle cx="5" cy="5" r="5" fill="#1FB69F"/></svg><svg fill="none" viewBox="0 0 11 12" id="x-mark" xmlns="http://www.w3.org/2000/svg"><path d="M1 1.5l9 9M10 1.5l-9 9" stroke="#fff" stroke-width="2" stroke-linecap="round" stroke-linejoin="round"/></svg></svg>