<svg width="286" height="401" fill="none" xmlns="http://www.w3.org/2000/svg"><path d="M282.022 321.314a8.001 8.001 0 003.978-6.916V86.828a8 8 0 00-3.978-6.916L147.024 1.398a8 8 0 00-8.044 0L3.978 79.912A8 8 0 000 86.828v227.57a8.002 8.002 0 003.978 6.916l135.002 78.514a8 8 0 008.044 0l134.998-78.514z" fill="#005AFF"/><path d="M282.022 321.314a8.001 8.001 0 003.978-6.916V86.828a8 8 0 00-3.978-6.916L147.024 1.398a8 8 0 00-8.044 0L3.978 79.912A8 8 0 000 86.828v227.57a8.002 8.002 0 003.978 6.916l135.002 78.514a8 8 0 008.044 0l134.998-78.514z" fill="#fff" fill-opacity=".1"/></svg>