<svg width="63" height="82" viewBox="0 0 63 82" fill="none" xmlns="http://www.w3.org/2000/svg">
<path d="M5 82C2.23857 82 -9.78513e-08 79.7614 -2.18557e-07 77L-3.36578e-06 5C-3.48648e-06 2.23858 2.23857 -9.78513e-08 5 -2.18557e-07L46.7537 -2.04367e-06C48.9741 -2.14073e-06 50.9286 1.46442 51.5523 3.5955L62.0889 39.5955C62.3573 40.5126 62.3573 41.4874 62.0889 42.4045L51.5523 78.4045C50.9286 80.5356 48.9741 82 46.7537 82L5 82Z" fill="#005AFF"/>
<path d="M13.6386 38.7881C13.6386 40.3831 13.9083 41.6408 14.3957 43.0714C13.552 43.4493 12.9636 44.2944 12.9636 45.278C12.9636 46.6135 14.0453 47.6966 15.3822 47.6966C15.3966 47.6966 15.4096 47.6952 15.424 47.6952C15.9245 54.0668 23.1673 59.4463 27.7506 59.4463C32.4551 59.4463 39.5767 54.0683 40.0772 47.6952C40.0916 47.6952 40.1046 47.6966 40.119 47.6966C41.4545 47.6966 42.5376 46.6135 42.5376 45.278C42.5376 44.2944 41.9492 43.4493 41.1055 43.0714C41.5944 41.6408 41.8626 40.3831 41.8626 38.7866" stroke="white" stroke-width="2" stroke-linecap="round" stroke-linejoin="round"/>
<path d="M18.0736 39.9866L17.7261 44.009C17.7261 44.009 16.4064 42.186 14.396 43.0701" stroke="white" stroke-width="2" stroke-miterlimit="10" stroke-linecap="round" stroke-linejoin="round"/>
<path d="M37.4682 39.9174L37.8215 44.009C37.8215 44.009 39.1412 42.186 41.1516 43.0701" stroke="white" stroke-width="2" stroke-miterlimit="10" stroke-linecap="round" stroke-linejoin="round"/>
<path d="M22.7217 21.4946C17.3553 22.9945 14.0497 27.285 12.9652 32.6255C11.334 32.6255 10 33.9596 10 35.5907C10 37.2219 11.259 38.0093 12.9652 38.5559C28.2079 43.9253 42.5348 38.5559 42.5348 38.5559C44.1645 38.0641 45.5 37.2219 45.5 35.5907C45.5 33.9596 44.166 32.6255 42.5348 32.6255C41.4517 27.285 38.2024 22.9945 32.836 21.4946" stroke="white" stroke-width="2" stroke-miterlimit="10" stroke-linecap="round" stroke-linejoin="round"/>
<path d="M29.405 32.1626H26.1543C24.2578 32.1626 22.7218 30.6252 22.7218 28.7302V21.4326C22.7218 19.5361 24.2592 18.0001 26.1543 18.0001H29.405C31.3015 18.0001 32.8375 19.5375 32.8375 21.4326V28.7302C32.8375 30.6252 31.3001 32.1626 29.405 32.1626Z" stroke="white" stroke-width="2" stroke-miterlimit="10" stroke-linecap="round" stroke-linejoin="round"/>
<path d="M25.9654 52.5367H29.6228" stroke="white" stroke-width="2" stroke-miterlimit="3.864" stroke-linecap="round" stroke-linejoin="round"/>
<path d="M30.406 40.9961C30.406 40.9961 28.8138 41.4115 28.8138 43.5171C28.8138 46.1679 31.7674 48.5576 34.0778 48.5576C36.3883 48.5576 37.7757 47.1543 37.6214 44.0882C37.467 41.0221 35.0023 40.9961 35.0023 40.9961H20.4418C20.4418 40.9961 17.977 41.0221 17.8227 44.0882C17.6684 47.1543 19.0558 48.5576 21.3662 48.5576C23.6781 48.5576 26.6303 46.1664 26.6303 43.5171C26.6303 41.4129 25.0381 40.9961 25.0381 40.9961" stroke="white" stroke-width="2" stroke-miterlimit="10" stroke-linecap="round" stroke-linejoin="round"/>
</svg>
