<svg width="63" height="82" viewBox="0 0 63 82" fill="none" xmlns="http://www.w3.org/2000/svg">
<path d="M5 82C2.23857 82 -9.78513e-08 79.7614 -2.18557e-07 77L-3.36578e-06 5C-3.48648e-06 2.23858 2.23857 -9.78513e-08 5 -2.18557e-07L46.7537 -2.04367e-06C48.9741 -2.14073e-06 50.9286 1.46442 51.5523 3.5955L62.0889 39.5955C62.3573 40.5126 62.3573 41.4874 62.0889 42.4045L51.5523 78.4045C50.9286 80.5356 48.9741 82 46.7537 82L5 82Z" fill="#005AFF"/>
<path d="M42.7082 53.4663C43.6172 52.3743 44.3914 51.1667 45.0138 49.8724C46.1071 47.5992 46.7247 45.0539 46.7247 42.3618C46.7247 40.3487 46.3647 38.4247 45.735 36.6259C43.3644 29.8606 36.9386 25 29.363 25C21.7741 25 15.3399 29.8762 12.9777 36.6608C12.3552 38.4487 12 40.3619 12 42.363C12 45.0383 12.6092 47.5703 13.6904 49.8338C14.3165 51.1426 15.0979 52.3634 16.0166 53.4675" stroke="white" stroke-width="2" stroke-linecap="round" stroke-linejoin="round"/>
<path d="M36.0271 55.9671C36.0271 56.7919 35.3589 57.4601 34.5342 57.4601H24.1918C23.367 57.4601 22.6988 56.7919 22.6988 55.9671V53.0293C22.6988 52.2046 23.367 51.5364 24.1918 51.5364H34.5342C35.3589 51.5364 36.0271 52.2046 36.0271 53.0293V55.9671Z" stroke="white" stroke-width="2" stroke-miterlimit="10" stroke-linecap="round" stroke-linejoin="round"/>
<path d="M46.7247 42.9783H42.2013" stroke="white" stroke-width="2" stroke-miterlimit="10" stroke-linecap="round" stroke-linejoin="round"/>
<path d="M16.7113 42.9783H12" stroke="white" stroke-width="2" stroke-miterlimit="10" stroke-linecap="round" stroke-linejoin="round"/>
<path d="M18.3967 48.5792L14.326 50.9294" stroke="white" stroke-width="2" stroke-miterlimit="10" stroke-linecap="round" stroke-linejoin="round"/>
<path d="M37.9932 27.2997L35.7574 31.1718" stroke="white" stroke-width="2" stroke-miterlimit="10" stroke-linecap="round" stroke-linejoin="round"/>
<path d="M29.3629 25V29.5054" stroke="white" stroke-width="2" stroke-miterlimit="10" stroke-linecap="round" stroke-linejoin="round"/>
<path d="M20.7325 27.2997L23.0141 31.2524" stroke="white" stroke-width="2" stroke-miterlimit="10" stroke-linecap="round" stroke-linejoin="round"/>
<path d="M14.3886 33.6027L18.3967 35.9168" stroke="white" stroke-width="2" stroke-miterlimit="10" stroke-linecap="round" stroke-linejoin="round"/>
<path d="M40.4688 48.6599L44.4528 50.9451" stroke="white" stroke-width="2" stroke-miterlimit="10" stroke-linecap="round" stroke-linejoin="round"/>
<path d="M31.9684 44.0895C31.3543 45.5282 29.6904 46.1977 28.2504 45.5836C26.8116 44.9696 26.1422 43.3056 26.7562 41.8657C27.3703 40.4269 29.0342 39.7574 30.4742 40.3715C31.913 40.9855 32.5824 42.6507 31.9684 44.0895Z" stroke="white" stroke-width="2" stroke-miterlimit="10" stroke-linecap="round" stroke-linejoin="round"/>
<path d="M31.7421 41.4406L41.769 34.9667" stroke="white" stroke-width="2" stroke-miterlimit="10" stroke-linecap="round" stroke-linejoin="round"/>
</svg>
