<svg width="38" height="44" viewBox="0 0 38 44" fill="none" xmlns="http://www.w3.org/2000/svg">
<path d="M4.63861 21.7876C4.63861 23.3827 4.9083 24.6403 5.39577 26.0709C4.55208 26.4488 3.96365 27.2939 3.96365 28.2775C3.96365 29.613 5.04531 30.6961 6.38224 30.6961C6.39666 30.6961 6.40964 30.6947 6.42406 30.6947C6.92451 37.0663 14.1673 42.4458 18.7506 42.4458C23.4551 42.4458 30.5768 37.0678 31.0772 30.6947C31.0916 30.6947 31.1046 30.6961 31.119 30.6961C32.4545 30.6961 33.5376 29.613 33.5376 28.2775C33.5376 27.2939 32.9492 26.4488 32.1055 26.0709C32.5944 24.6403 32.8627 23.3827 32.8627 21.7861" stroke="#37455C" stroke-width="2" stroke-linecap="round" stroke-linejoin="round"/>
<path d="M9.07363 22.9863L8.72606 27.0087C8.72606 27.0087 7.40644 25.1857 5.396 26.0698" stroke="#37455C" stroke-width="2" stroke-miterlimit="10" stroke-linecap="round" stroke-linejoin="round"/>
<path d="M28.4682 22.917L28.8215 27.0085C28.8215 27.0085 30.1412 25.1856 32.1516 26.0697" stroke="#37455C" stroke-width="2" stroke-miterlimit="10" stroke-linecap="round" stroke-linejoin="round"/>
<path d="M13.7217 4.49414C8.35527 5.99404 5.04973 10.2846 3.96518 15.6251C2.33404 15.6251 1 16.9592 1 18.5903C1 20.2214 2.25905 21.0089 3.96518 21.5555C19.2079 26.9248 33.5348 21.5555 33.5348 21.5555C35.1645 21.0637 36.5 20.2214 36.5 18.5903C36.5 16.9592 35.166 15.6251 33.5348 15.6251C32.4517 10.2846 29.2024 5.99404 23.836 4.49414" stroke="#37455C" stroke-width="2" stroke-miterlimit="10" stroke-linecap="round" stroke-linejoin="round"/>
<path d="M20.405 15.1625H17.1543C15.2578 15.1625 13.7218 13.6251 13.7218 11.73V4.43246C13.7218 2.53595 15.2592 1 17.1543 1H20.405C22.3015 1 23.8375 2.5374 23.8375 4.43246V11.73C23.8375 13.6251 22.3001 15.1625 20.405 15.1625Z" stroke="#37455C" stroke-width="2" stroke-miterlimit="10" stroke-linecap="round" stroke-linejoin="round"/>
<path d="M16.9654 35.5371H20.6228" stroke="#37455C" stroke-width="2" stroke-miterlimit="3.864" stroke-linecap="round" stroke-linejoin="round"/>
<path d="M21.406 23.9961C21.406 23.9961 19.8138 24.4115 19.8138 26.5171C19.8138 29.1679 22.7674 31.5576 25.0778 31.5576C27.3883 31.5576 28.7757 30.1543 28.6214 27.0882C28.467 24.0221 26.0023 23.9961 26.0023 23.9961H11.4418C11.4418 23.9961 8.97701 24.0221 8.8227 27.0882C8.66838 30.1543 10.0558 31.5576 12.3662 31.5576C14.6781 31.5576 17.6303 29.1664 17.6303 26.5171C17.6303 24.4129 16.0381 23.9961 16.0381 23.9961" stroke="#37455C" stroke-width="2" stroke-miterlimit="10" stroke-linecap="round" stroke-linejoin="round"/>
</svg>
