<svg width="66" height="35" viewBox="0 0 66 35" fill="none" xmlns="http://www.w3.org/2000/svg">
<path d="M10.9834 33.6494C13.895 33.6494 16.2553 31.289 16.2553 28.3774C16.2553 25.4658 13.895 23.1055 10.9834 23.1055C8.07175 23.1055 5.71143 25.4658 5.71143 28.3774C5.71143 31.289 8.07175 33.6494 10.9834 33.6494Z" stroke="#37455C" stroke-width="2" stroke-miterlimit="10" stroke-linecap="round" stroke-linejoin="round"/>
<path d="M39.802 33.6494C42.7136 33.6494 45.0739 31.289 45.0739 28.3774C45.0739 25.4658 42.7136 23.1055 39.802 23.1055C36.8904 23.1055 34.53 25.4658 34.53 28.3774C34.53 31.289 36.8904 33.6494 39.802 33.6494Z" stroke="#37455C" stroke-width="2" stroke-miterlimit="10" stroke-linecap="round" stroke-linejoin="round"/>
<path d="M50.3446 33.6494C53.2562 33.6494 55.6166 31.289 55.6166 28.3774C55.6166 25.4658 53.2562 23.1055 50.3446 23.1055C47.433 23.1055 45.0727 25.4658 45.0727 28.3774C45.0727 31.289 47.433 33.6494 50.3446 33.6494Z" stroke="#37455C" stroke-width="2" stroke-miterlimit="10" stroke-linecap="round" stroke-linejoin="round"/>
<path d="M16.2553 27.2061H34.6622" stroke="#37455C" stroke-width="2" stroke-miterlimit="10" stroke-linecap="round" stroke-linejoin="round"/>
<path d="M55.6165 27.206L62.5269 24.1935V20.2795H13.7203V8.12207H4.93959L1.1814 16.8068V26.721H5.9047" stroke="#37455C" stroke-width="2" stroke-miterlimit="10" stroke-linecap="round" stroke-linejoin="round"/>
<path d="M63.1753 14.8928L12.0632 5.27164C11.3437 5.13572 10.8712 4.44369 11.0071 3.72422L11.2602 2.37631C11.3961 1.65684 12.0881 1.18426 12.8076 1.32017L63.9197 10.9413C64.6392 11.0773 65.1118 11.7693 64.9771 12.4888L64.724 13.8367C64.5868 14.5549 63.8948 15.0275 63.1753 14.8928Z" stroke="#37455C" stroke-width="2" stroke-miterlimit="10" stroke-linecap="round" stroke-linejoin="round"/>
<path d="M33.939 9.38867V20.2792" stroke="#37455C" stroke-width="2" stroke-miterlimit="10" stroke-linecap="round" stroke-linejoin="round"/>
<path d="M13.7203 12.2949H17.0621L19.8502 20.2789" stroke="#37455C" stroke-width="2" stroke-miterlimit="10" stroke-linecap="round" stroke-linejoin="round"/>
<path d="M33.939 13.334H38.8144L40.9965 20.2793" stroke="#37455C" stroke-width="2" stroke-miterlimit="10" stroke-linecap="round" stroke-linejoin="round"/>
<path d="M62.5269 20.2794V14.7705" stroke="#37455C" stroke-width="2" stroke-miterlimit="10" stroke-linecap="round" stroke-linejoin="round"/>
<path d="M56.7388 20.279V13.6279" stroke="#37455C" stroke-width="2" stroke-miterlimit="10" stroke-linecap="round" stroke-linejoin="round"/>
<path d="M53.5168 20.2787V16.2861H44.0614V20.2787" stroke="#37455C" stroke-width="2" stroke-miterlimit="10" stroke-linecap="round" stroke-linejoin="round"/>
<path d="M19.8501 20.2793V27.2059" stroke="#37455C" stroke-width="2" stroke-miterlimit="10" stroke-linecap="round" stroke-linejoin="round"/>
<path d="M28.6833 20.2793V27.2059" stroke="#37455C" stroke-width="2" stroke-miterlimit="10" stroke-linecap="round" stroke-linejoin="round"/>
</svg>
