<svg width="43" height="33" viewBox="0 0 43 33" fill="none" xmlns="http://www.w3.org/2000/svg">
<path d="M11.6085 9.60359C11.6085 9.60359 12.4621 4.77119 14.5933 4.69517C16.7245 4.61916 19.3748 7.22675 20.2953 5.76889C21.2174 4.31102 22.8876 3.69747 26.2859 3.31468C29.6842 2.93053 28.2446 0.322933 30.3758 1.16725C32.5069 2.01156 36.4808 8.22446 36.6533 9.60495" stroke="#37455C" stroke-width="2" stroke-miterlimit="10" stroke-linecap="round" stroke-linejoin="round"/>
<path d="M34.0461 28.0223C34.0461 29.8779 35.7147 31.3806 37.7731 31.3806C39.8314 31.3806 41.5001 29.8765 41.5001 28.0223C41.5001 26.1681 39.8314 24.6641 37.7731 24.6641C35.7133 24.6641 34.0461 26.1681 34.0461 28.0223Z" stroke="#37455C" stroke-width="2" stroke-miterlimit="10" stroke-linecap="round" stroke-linejoin="round"/>
<path d="M1 9.60449H5.17464L12.7164 31.3829H15.264L18.8898 24.061" stroke="#37455C" stroke-width="2" stroke-linecap="round" stroke-linejoin="round"/>
<path d="M8.58473 19.4519C8.58473 19.4519 31.1549 35.2876 40.1972 12.2861H6.10404" stroke="#37455C" stroke-width="2" stroke-miterlimit="10" stroke-linecap="round" stroke-linejoin="round"/>
</svg>
