<svg width="172" height="21" viewBox="0 0 172 21" fill="none" xmlns="http://www.w3.org/2000/svg">
<path d="M12.7129 0.220703V5.6367H10.5819C7.88995 5.6367 5.72095 7.7737 5.72095 10.4267C5.72095 13.0787 7.88995 15.2157 10.5809 15.2157H12.7129V20.6317C17.5729 19.7107 21.2009 15.5107 21.2009 10.4257C21.2009 5.3787 17.5739 1.1787 12.7129 0.220703Z" fill="#003791"/>
<path d="M10.582 16.91C6.955 16.91 4 14 4 10.427C4 6.854 6.954 3.943 10.58 3.943H10.992V0H10.581C4.749 0 0 4.679 0 10.426C0 16.211 4.749 20.89 10.582 20.89H10.993V16.912H10.582V16.91ZM36.157 14.074C35.3002 14.7671 34.231 15.1442 33.129 15.142C30.474 15.142 28.343 13.042 28.343 10.426C28.343 7.811 30.473 5.711 33.129 5.711C34.2846 5.70605 35.4018 6.12519 36.269 6.889L37.952 5.232C36.6286 4.04064 34.9096 3.38376 33.129 3.389C29.165 3.389 25.987 6.558 25.987 10.426C25.987 14.295 29.165 17.5 33.129 17.5C34.961 17.5 36.606 16.837 37.84 15.732L36.157 14.074ZM112.249 3.942L106.977 10.205L101.667 3.942L101.63 4.016V3.942H99.498V16.911H101.63V7.405L106.977 13.668L112.249 7.553V16.911H114.343V3.942H112.249ZM53.806 10.426C53.806 14.332 50.59 17.463 46.664 17.463C42.701 17.463 39.523 14.295 39.523 10.426C39.523 6.558 42.738 3.389 46.664 3.389C50.59 3.389 53.806 6.558 53.806 10.426ZM51.413 10.426C51.413 7.811 49.282 5.711 46.627 5.711C43.972 5.711 41.841 7.811 41.841 10.426C41.841 13.042 43.972 15.142 46.627 15.142C49.282 15.142 51.413 13.042 51.413 10.426ZM97.33 10.426C97.33 14.332 94.114 17.463 90.188 17.463C86.224 17.463 83.046 14.295 83.046 10.426C83.046 6.558 86.262 3.389 90.188 3.389C94.151 3.389 97.33 6.558 97.33 10.426ZM94.974 10.426C94.974 7.811 92.843 5.711 90.188 5.711C87.533 5.711 85.402 7.811 85.402 10.426C85.402 13.042 87.533 15.142 90.188 15.142C92.805 15.142 94.974 13.042 94.974 10.426ZM83.009 3.942H80.129L74.708 9.395H72.502V3.942H70.408V16.911H72.502V11.495H74.67L80.092 16.911H82.934L76.503 10.463L83.009 3.942Z" fill="#FF4B5F"/>
<path d="M171.7 3.94238H168.86L163.4 9.39538H161.194V3.94238H159.1V16.9114H161.194V11.4954H163.4L168.784 16.9114H171.626L165.232 10.4634L171.7 3.94238ZM140.74 16.9104H143.06L137.263 3.94238H134.87L129.075 16.9114H131.393L132.664 14.1114H139.47L140.74 16.9114V16.9104ZM133.6 12.0474L136.067 6.59538L138.535 12.0474H133.599H133.6Z" fill="#003791"/>
<path d="M67.7161 13.1534C67.7161 12.6408 67.6098 12.1337 67.4037 11.6643C67.1977 11.1949 66.8964 10.7734 66.5191 10.4264C67.2291 9.72639 67.7161 8.76839 67.7161 7.70039C67.7129 6.70139 67.3133 5.7445 66.6051 5.03988C65.897 4.33526 64.9381 3.94053 63.9391 3.94239H56.2371V16.9474H63.9391C66.0331 16.9114 67.7161 15.2164 67.7161 13.1534ZM58.3681 6.04339H63.9021C64.8371 6.04339 65.5841 6.77939 65.5841 7.70039C65.5841 8.62139 64.8371 9.35839 63.9021 9.35839H58.3681V6.04239V6.04339ZM63.9021 14.8474H58.3681V11.4954H63.9391C64.8741 11.4954 65.6221 12.2684 65.6221 13.1534C65.5841 14.0734 64.8371 14.8474 63.9021 14.8474Z" fill="#FF4B5F"/>
<path d="M154.351 3.97938V9.39538H146.686V3.97938H144.555V16.8744H146.686V11.4944H154.351V16.8744H156.483V3.97938H154.351ZM128.327 13.1534C128.327 11.0894 126.607 9.39538 124.513 9.39538H118.979V6.04238H127.056V3.94238H116.848V16.9474H124.513C126.607 16.9114 128.327 15.2164 128.327 13.1534ZM124.513 14.8474H118.979V11.4954H124.513C125.448 11.4954 126.196 12.2684 126.196 13.1534C126.196 14.0734 125.448 14.8474 124.513 14.8474Z" fill="#003791"/>
</svg>
