<svg width="286" height="401" viewBox="0 0 286 401" fill="none" xmlns="http://www.w3.org/2000/svg">
<path d="M282.022 321.314C284.485 319.881 286 317.247 286 314.398L286 86.8278C286 83.9788 284.485 81.3447 282.022 79.9124L147.024 1.39775C144.537 -0.0483043 141.466 -0.0483216 138.98 1.3977L3.97815 79.9124C1.51532 81.3447 8.88876e-05 83.9788 8.87982e-05 86.8279L2.06211e-05 314.398C2.05317e-05 317.247 1.51525 319.881 3.97808 321.314L138.98 399.828C141.466 401.274 144.537 401.274 147.024 399.828L282.022 321.314Z" fill="#005AFF"/>
<path d="M282.022 321.314C284.485 319.881 286 317.247 286 314.398L286 86.8278C286 83.9788 284.485 81.3447 282.022 79.9124L147.024 1.39775C144.537 -0.0483043 141.466 -0.0483216 138.98 1.3977L3.97815 79.9124C1.51532 81.3447 8.88876e-05 83.9788 8.87982e-05 86.8279L2.06211e-05 314.398C2.05317e-05 317.247 1.51525 319.881 3.97808 321.314L138.98 399.828C141.466 401.274 144.537 401.274 147.024 399.828L282.022 321.314Z" fill="white" fill-opacity="0.1"/>
</svg>
