<svg width="173" height="40" viewBox="0 0 173 40" fill="none" xmlns="http://www.w3.org/2000/svg">
<path fill-rule="evenodd" clip-rule="evenodd" d="M43.5379 18.7331L44.1071 16.9075L42.2227 16.9676C42.0645 16.9676 40.9063 16.9329 39.7851 16.1189C39.8694 16.1258 39.9514 16.1385 40.0392 16.1385C41.1938 16.1385 42.3127 15.4411 42.7596 14.4434L43.5702 12.6421C42.5541 12.656 41.6245 12.5278 41.6245 12.5278C41.6165 12.5278 40.8844 12.432 40.038 11.5648C39.4306 10.9447 38.6789 10.6156 37.8649 10.6156C37.5426 10.6169 37.2224 10.6679 36.9157 10.7669C36.9585 10.6214 36.9989 10.4725 37.0231 10.32C37.2806 8.6342 36.1987 7.35019 36.1987 7.35019L34.7819 5.59276L33.9032 7.65734C33.8997 7.66426 33.678 8.14923 33.2819 8.38479C33.1618 7.77742 32.8674 7.095 32.2393 6.44261C31.0534 5.21402 29.6112 5.02927 28.856 5.02927C28.5062 5.02927 28.2556 5.06853 28.1955 5.07777L26.4855 5.41494C26.5836 5.03274 26.7949 4.36417 27.1783 3.76489L28.1228 2.29267L25.7476 2.56402L24.9913 0.954388L23.526 1.71071L22.1716 0.370117L20.8206 1.70955L19.353 0.954388L18.5978 2.56286L16.2238 2.29151L17.1695 3.76605C17.554 4.36533 17.763 5.03043 17.8611 5.41263L16.2295 5.08932L16.173 5.08123C15.9476 5.04573 15.7198 5.02836 15.4917 5.02927C14.7365 5.02927 13.2943 5.21402 12.1119 6.44261C11.4826 7.09385 11.187 7.77742 11.0669 8.38479C10.6732 8.15039 10.4527 7.67466 10.4527 7.67466L9.57278 5.59622L8.13289 7.36751C7.95737 7.59498 7.09021 8.80278 7.32461 10.3235C7.35001 10.4748 7.38927 10.6226 7.43199 10.7681C7.12616 10.6687 6.80671 10.6177 6.48515 10.6168C5.66994 10.6168 4.91824 10.9459 4.30972 11.5659C3.4668 12.4297 2.7382 12.5278 2.74397 12.5278C2.74397 12.5278 1.97379 12.6664 0.781005 12.6433L1.58813 14.4446C2.03615 15.4422 3.15619 16.1397 4.30857 16.1397C4.39633 16.1397 4.47831 16.127 4.56375 16.12C3.44371 16.9352 2.28671 16.9687 2.147 16.9687L0.229065 16.9075L0.809872 18.7319C1.10316 19.6741 2.08003 21.2318 3.95062 21.3992C3.74739 22.2537 3.29591 23.2121 2.30519 23.6255L0.875689 24.2144L1.6551 25.5746C2.09504 26.3078 3.12848 27.1657 4.59839 27.1657C4.91593 27.1657 5.22308 27.1323 5.51983 27.0699C5.59489 27.4048 5.68957 27.7396 5.80158 28.0745C6.23805 29.3793 5.86162 30.2892 5.857 30.2996L5.15264 31.7799L6.72648 32.1956C6.74611 32.2025 7.223 32.3341 7.81766 32.3341C8.08785 32.3341 8.3465 32.3053 8.58899 32.2475C8.77143 32.2048 8.94694 32.1471 9.11668 32.0789C9.32106 32.445 9.56816 32.7798 9.85683 33.0789C10.866 34.117 12.2978 34.6423 14.1084 34.6423H14.1142L15.4074 34.625L12.7355 35.7381L14.7642 36.7208C15.5021 37.081 16.375 37.506 17.2664 37.8316L17.0124 38.5255L17.711 38.8454C17.7734 38.8743 19.1197 39.4758 21.354 39.604C21.354 39.604 21.8933 39.6294 22.19 39.6294C22.4879 39.6294 23.0214 39.6029 23.0214 39.6029C25.2407 39.4712 26.5755 38.8743 26.6379 38.8454L27.3388 38.5255L27.0836 37.8304C27.9981 37.4956 28.9045 37.0522 29.6123 36.7069L31.603 35.737L28.9392 34.625L30.2382 34.6423C32.051 34.6423 33.4829 34.1158 34.4909 33.0777C34.7784 32.7798 35.0244 32.4461 35.2299 32.0789C35.642 32.2494 36.0841 32.3357 36.5301 32.333C37.1155 32.333 37.597 32.2036 37.6097 32.199L39.1916 31.7799L38.5023 30.3261C38.4861 30.2892 38.1097 29.3793 38.5461 28.0722C38.6581 27.7396 38.7517 27.4036 38.8279 27.0699C39.1246 27.1323 39.4353 27.1646 39.7551 27.1657C41.628 27.1657 42.5263 25.8459 42.6996 25.5596L43.472 24.2132L42.0425 23.6255C41.0495 23.2133 40.5992 22.2549 40.3983 21.4016C42.2446 21.2399 43.2342 19.6811 43.539 18.7342L43.5379 18.7331Z" fill="#FFFFFE"/>
<path fill-rule="evenodd" clip-rule="evenodd" d="M22.1716 5.96295C20.6589 5.96411 19.5239 6.46062 19.2768 7.04605L22.1716 8.18919L25.0675 7.04605C24.8227 6.46062 23.6877 5.96411 22.1716 5.96295ZM22.2027 36.2607H22.145C21.2282 36.2665 19.9638 36.0783 19.3564 35.8993L18.6244 37.8842C19.107 38.0563 20.7421 38.3865 22.175 38.3865C23.6057 38.3865 25.2419 38.0563 25.7234 37.8842L24.9925 35.9005C24.3816 36.0783 23.1196 36.2665 22.2027 36.2607ZM27.7418 34.2862C27.1967 34.5957 25.9809 35.0599 25.273 35.2746L25.8666 36.9143C26.9612 36.6141 27.8653 36.2642 28.6112 35.8889L27.378 35.479L27.7418 34.2862ZM16.6048 34.2862L16.9697 35.479L15.7353 35.8889C16.4801 36.2642 17.3877 36.6141 18.4789 36.9131L19.0735 35.2735C18.3669 35.0587 17.1487 34.5957 16.6048 34.2862ZM22.1716 4.0658C23.3135 4.0658 24.4313 4.33947 25.2927 4.81866C25.3712 4.55539 25.4809 4.23439 25.6298 3.89838L25.3042 3.93763L24.9636 3.97228L24.8193 3.66166L24.3828 2.74138L23.5907 3.15476L23.2812 3.31179L23.0341 3.06931L22.1716 2.21484L21.3113 3.06931L21.0654 3.31179L20.7571 3.15476L19.9603 2.74138L19.5296 3.66166L19.383 3.97343L19.0412 3.93763L18.7179 3.89838C18.8668 4.23439 18.9754 4.55539 19.0551 4.81866C19.9188 4.33947 21.0365 4.0658 22.1727 4.0658H22.1716ZM39.59 14.7085C39.7389 14.7593 39.8891 14.7824 40.038 14.7824C40.6846 14.7824 41.3082 14.3633 41.5218 13.8853C41.5218 13.8853 40.3382 13.8137 39.0658 12.5193C38.6616 12.1013 38.2321 11.9754 37.8649 11.9754C37.2933 11.9754 36.8638 12.2768 36.8638 12.2768C38.4018 13.0966 38.7147 14.4129 39.59 14.7085ZM4.30857 14.7813C4.45868 14.7813 4.60879 14.7593 4.75313 14.7074C5.63069 14.4118 5.94707 13.0966 7.48165 12.2779C7.48165 12.2779 7.05211 11.9754 6.484 11.9754C6.1145 11.9754 5.68611 12.1001 5.27966 12.5204C4.00836 13.8137 2.82596 13.8864 2.82596 13.8864C3.03842 14.3633 3.66311 14.7824 4.30857 14.7824V14.7813Z" fill="#FFFFFE"/>
<path fill-rule="evenodd" clip-rule="evenodd" d="M39.1269 24.1514C37.9376 23.5625 37.1871 22.0037 37.0046 21.4425C36.8083 24.5347 35.3015 26.6801 33.5406 28.7447C32.6261 29.8163 32.3074 30.8578 32.3074 30.8578C32.3074 30.8578 32.484 29.6777 33.2738 28.717C34.9169 26.7402 36.4781 24.2784 36.5947 21.4309C36.6744 19.4449 36.1652 17.8341 35.3684 16.5062C35.8141 17.8884 35.7506 19.5823 34.2391 21.163C34.2391 21.163 37.2494 17.5512 33.0417 13.847C31.3582 12.4382 29.5153 11.5676 28.5673 10.951C31.9933 12.0711 33.6676 10.8379 33.6676 10.8379C32.5729 11.7882 31.1561 11.772 30.2774 11.6346C30.5164 11.7512 30.7647 11.8736 31.0303 12.0156C33.9205 13.5883 36.5162 16.176 36.9596 19.7578V19.7301C37.6305 23.2484 39.1269 24.1514 39.1269 24.1514ZM40.0068 20.0522C40.0334 20.0546 40.0564 20.0546 40.083 20.0546C41.6938 20.0546 42.2388 18.326 42.2388 18.326H42.2076C41.912 18.326 39.5172 18.2567 37.8244 16.1009C36.7113 14.6841 35.798 13.4382 33.9944 12.9486L33.8165 12.9163L33.7784 12.735C33.7288 12.459 33.917 12.2004 34.3465 11.9221C36.8349 10.2894 35.1433 8.20632 35.1433 8.20632C35.1433 8.20632 34.4343 9.87138 32.8443 9.87138L32.7254 9.86907C32.5452 9.85983 32.3709 9.85406 32.1954 9.81596L31.9021 9.75822C31.9021 9.75822 32.3559 8.52271 31.2612 7.38996C30.4379 6.53319 29.4345 6.3877 28.856 6.3877C28.5639 6.3877 28.3791 6.4258 28.3791 6.4258C28.9287 7.14517 29.326 8.34027 28.6909 9.07696C28.1424 9.70973 26.803 9.7409 26.803 10.6854C26.803 11.085 27.1759 11.5514 27.8457 11.9706C29.8594 13.2408 31.8582 14.9266 32.6896 17.1863C33.7288 20.0037 32.5579 21.8743 30.8883 22.947C30.8883 22.947 31.4125 23.4297 32.1711 23.4921C32.3258 23.5071 32.4771 23.514 32.618 23.514C34.2218 23.514 35.0509 22.76 35.0509 22.76C35.0509 22.76 34.9135 23.8015 34.081 24.768C33.3096 25.6594 32.2993 26.1859 30.7578 26.2079C30.7578 26.2079 30.7093 26.9238 31.3917 27.545C31.8293 27.9364 32.8374 28.0646 32.8374 28.0646C32.8374 28.0646 30.9483 28.4468 30.7393 31.2423C30.6261 32.7572 30.2405 33.2826 30.2405 33.2826H30.274C34.6571 33.2826 34.5451 29.516 34.5451 29.516C34.5451 29.516 34.85 30.6315 36.0728 30.9224C36.2206 30.9617 36.3788 30.9767 36.5289 30.9767C36.9215 30.9767 37.2644 30.8843 37.2644 30.8843C37.2644 30.8843 36.6236 29.5311 37.2586 27.6385C37.7863 26.067 37.7009 24.9031 37.7009 24.9031C37.7009 24.9031 38.2909 25.798 39.7562 25.806H39.7712C40.1174 25.8114 40.4592 25.7293 40.7652 25.5675C41.0712 25.4056 41.3314 25.1691 41.5218 24.88C38.5992 23.6641 38.8879 19.7416 38.8879 19.7416C38.8879 19.7416 39.2666 20.0257 40.0068 20.0534V20.0522ZM10.806 28.7447C9.04507 26.6801 7.5382 24.5347 7.3396 21.4425C7.15831 22.0048 6.40892 23.5636 5.22075 24.1514C5.22075 24.1514 6.71491 23.2484 7.38578 19.7301V19.7578C7.83034 16.176 10.4261 13.5883 13.3162 12.0168C13.5818 11.8725 13.8312 11.7512 14.0679 11.6357C13.1904 11.772 11.7724 11.7882 10.6789 10.839C10.6789 10.839 12.3532 12.0711 15.778 10.951C14.8312 11.5676 12.9883 12.4382 11.3059 13.847C7.09711 17.5512 10.1074 21.163 10.1074 21.163C8.59474 19.5811 8.53239 17.8895 8.9781 16.5062C8.18136 17.8341 7.67099 19.4449 7.75413 21.4321C7.86844 24.2784 9.42842 26.7402 11.0681 28.7182C11.8625 29.6765 12.0415 30.8566 12.0415 30.8566C12.0415 30.8566 11.7182 29.8163 10.806 28.7447ZM11.5103 28.0634C11.5103 28.0634 12.5184 27.9364 12.956 27.5438C13.6373 26.9238 13.5899 26.2079 13.5899 26.2079C12.0472 26.1859 11.0381 25.6594 10.2633 24.768C9.4342 23.8015 9.29563 22.76 9.29563 22.76C9.29563 22.76 10.1247 23.514 11.7262 23.514C11.8706 23.514 12.0207 23.5071 12.1743 23.4921C12.6481 23.4441 13.0965 23.2541 13.4606 22.947C11.7886 21.8743 10.6177 20.0037 11.6558 17.1852C12.4872 14.9277 14.4848 13.2408 16.5009 11.9694C17.1694 11.5514 17.5412 11.085 17.5412 10.6854C17.5412 9.7409 16.2041 9.70973 15.6556 9.07696C15.0206 8.34027 15.4189 7.14517 15.9674 6.4258C15.9674 6.4258 15.7838 6.3877 15.4905 6.3877C14.9132 6.3877 13.9098 6.53319 13.0853 7.38996C11.9884 8.52386 12.4445 9.75938 12.4445 9.75938L12.1512 9.81711C11.9768 9.85291 11.8001 9.85983 11.62 9.87023L11.5045 9.87138C9.91108 9.87138 9.20326 8.20748 9.20326 8.20748C9.20326 8.20748 7.51395 10.2894 10.0023 11.9221C10.4295 12.2004 10.6177 12.4602 10.5681 12.735L10.53 12.9151L10.3487 12.9475C8.54855 13.4382 7.6352 14.6841 6.51977 16.1009C4.827 18.2567 2.43449 18.326 2.13774 18.326H2.10541C2.10541 18.326 2.65157 20.0546 4.26351 20.0546C4.28892 20.0546 4.31201 20.0546 4.33972 20.0522C5.07988 20.0257 5.45977 19.7416 5.45977 19.7416C5.45977 19.7416 5.74613 23.6641 2.82478 24.88C2.82478 24.88 3.35709 25.8072 4.57643 25.8072H4.59029C6.05674 25.798 6.64563 24.9031 6.64563 24.9031C6.64563 24.9031 6.56018 26.0682 7.08557 27.6385C7.72064 29.5322 7.08326 30.8832 7.08326 30.8832C7.08326 30.8832 7.42389 30.9756 7.81764 30.9756C7.97005 30.9756 8.12594 30.9617 8.27258 30.9224C9.49424 30.6315 9.80023 29.516 9.80023 29.516C9.80023 29.516 9.68823 33.2826 14.0726 33.2826H14.1049C14.1049 33.2826 13.7204 32.7572 13.6084 31.2423C13.4005 28.448 11.5092 28.0634 11.5092 28.0634H11.5103ZM21.1831 14.1841H23.25V14.8943C23.0075 14.5964 22.5341 14.6576 22.5341 14.6576V15.6818C22.5341 15.6818 22.5503 16.1852 22.7281 16.4034H21.705C21.884 16.1852 21.899 15.6818 21.899 15.6818V14.6576C21.899 14.6576 21.4279 14.5964 21.1831 14.8943V14.1841ZM18.9315 14.2904C19.0031 14.3677 19.0735 14.452 19.1416 14.5363C19.1578 14.5559 19.1728 14.5733 19.189 14.5964C19.2525 14.6795 19.316 14.7696 19.3772 14.8596L19.4188 14.9208C19.4915 15.0317 19.5608 15.146 19.6301 15.2649C20.2628 16.3584 21.2743 17.012 22.1715 17.0131C23.071 17.012 24.0814 16.3584 24.7153 15.2649C24.7857 15.1437 24.8562 15.0259 24.9301 14.915C25.0144 14.7859 25.1045 14.6607 25.2003 14.5398C25.2707 14.452 25.3435 14.3666 25.4174 14.2881C25.4301 14.2765 25.4404 14.2638 25.4531 14.2534C25.7765 13.9232 26.1587 13.6715 26.6621 13.5317L26.4381 13.4013H26.4265L25.5351 12.884L24.6218 12.3586L22.1785 13.6911L22.1715 13.6853L22.1681 13.6911L19.7248 12.3586L18.8102 12.884L17.9188 13.4013H17.9084L17.6833 13.5317C18.1856 13.6703 18.5689 13.9197 18.8922 14.2511C18.9061 14.2626 18.9153 14.2788 18.9315 14.2904Z" fill="#FFFFFE"/>
<path fill-rule="evenodd" clip-rule="evenodd" d="M21.3945 9.66829V10.338L21.2663 10.278C21.2605 10.2733 21.0712 10.2318 20.7444 9.97082C20.2028 9.55051 20.1924 9.16254 20.1924 9.16254L21.3933 9.66829H21.3945ZM21.9603 12.8056V8.64639L19.3183 7.74805L20.0158 11.7779L21.9614 12.8056H21.9603ZM22.9533 9.66829L24.1542 9.16254C24.1542 9.16254 24.1449 9.55051 23.6011 9.97082C23.2743 10.2306 23.0861 10.2733 23.0803 10.278L22.9533 10.3369V9.66829ZM24.3308 11.7791L25.0248 7.7492L22.384 8.64639V12.8056L24.3308 11.7779V11.7791ZM18.2237 22.4472C18.4812 22.5396 18.793 22.5592 18.9535 22.5592C18.9592 22.5396 18.9685 22.5153 18.9766 22.4853C18.9893 22.4391 19.0031 22.3906 19.0135 22.3398C19.0585 22.1089 19.0735 21.8491 19.0782 21.6805C18.9305 21.5927 18.8102 21.4656 18.7306 21.3133C18.6325 21.1066 18.4927 21.0096 18.2884 21.0096C18.0228 21.0096 17.7376 21.1713 17.614 21.2452C17.517 21.8202 17.9408 22.3421 18.2237 22.446V22.4472ZM24.0687 20.2406C23.5791 20.7752 22.6173 21.707 22.5711 21.7532L22.5134 21.811L19.4765 21.7636C19.474 22.0149 19.4414 22.2649 19.3795 22.5084L19.3553 22.6042L22.966 23.2555C23.3413 22.9922 24.3747 22.2359 24.7765 21.9391C24.4844 21.5119 24.4567 21.005 24.5225 20.6493C24.3491 20.5398 24.1957 20.4016 24.0687 20.2406Z" fill="#FFFFFE"/>
<path fill-rule="evenodd" clip-rule="evenodd" d="M24.4809 16.5822C23.7812 17.2773 23.1103 17.5348 22.511 17.5949C22.4013 17.6068 22.2911 17.6129 22.1808 17.6133H22.1658C21.9453 17.6133 21.7255 17.5901 21.5099 17.5441C21.4706 17.6999 21.421 18.0267 21.563 18.3362C21.69 18.6168 21.9475 18.8258 22.324 18.9655L22.451 19.0151L22.4521 19.1514C22.4521 19.1918 22.4821 20.0763 23.4452 20.3222C23.6022 20.1606 23.7454 20.0139 23.8493 19.8904C23.653 19.4274 23.7569 18.9539 24.0421 18.7218C24.0306 18.7715 23.9036 19.932 24.8331 20.3638L24.9867 20.4365L24.9405 20.5994C24.9255 20.649 24.616 21.7725 25.7418 22.1905L25.9404 22.2667L25.8515 22.4596C25.8319 22.5023 25.3908 23.5219 26.43 24.1015H28.6828V22.3083C27.8815 22.2101 27.5431 21.5647 27.4554 21.1074C27.0824 21.0439 26.7949 20.8834 26.5974 20.6213C26.124 19.9978 26.5305 19.4262 26.5362 19.395C26.5351 19.3996 26.5362 20.007 26.9104 20.3834C27.0963 20.5636 27.3157 20.7044 27.6494 20.7356L27.8122 20.7506L27.826 20.9181C27.8295 20.9538 27.9184 21.7771 28.6828 21.9065L28.6817 18.2461C28.6817 17.678 28.8468 17.1076 29.0454 16.5811H24.4809V16.5822ZM18.4153 18.26L18.3553 20.5901L18.6209 20.6317L19.2675 18.3951L18.9384 17.7069L18.4165 18.26H18.4153ZM19.8171 26.8901C19.7994 26.8895 19.7819 26.8853 19.7658 26.8778C19.7497 26.8703 19.7354 26.8595 19.7236 26.8462C19.7118 26.8329 19.7028 26.8173 19.6973 26.8005C19.6917 26.7836 19.6897 26.7658 19.6913 26.7481C19.6923 26.7306 19.6968 26.7134 19.7045 26.6977C19.7123 26.6819 19.7231 26.6679 19.7363 26.6564C19.7495 26.6449 19.7649 26.6361 19.7816 26.6307C19.7982 26.6252 19.8158 26.6231 19.8333 26.6245C19.9095 26.628 19.9626 26.6938 19.9603 26.7654C19.9576 26.8008 19.9411 26.8338 19.9143 26.8571C19.8875 26.8805 19.8526 26.8923 19.8171 26.8901ZM25.5467 28.9535C25.5663 28.9535 25.5894 28.9558 25.6102 28.9616C26.0143 29.0771 26.1148 30.5297 26.8203 30.659C26.8896 30.674 26.9542 30.6775 27.0097 30.6775C27.214 30.6775 27.3353 30.5909 27.4669 30.435C27.4669 30.435 27.1113 29.8773 26.8457 29.4997C26.4935 29.0055 26.2199 28.4085 25.5628 28.4085C25.5467 28.4085 25.5282 28.4085 25.5109 28.4108C25.3858 28.4158 25.2647 28.4567 25.1622 28.5286C24.9429 28.3835 24.6861 28.3053 24.4232 28.3034C24.0133 28.3034 23.6923 28.4928 23.5318 28.4928H23.526L22.0595 28.3473C21.8297 28.3242 21.6485 28.0933 21.5826 28.0032L21.5572 27.9639C21.5572 27.9235 21.5572 27.8831 21.5549 27.8473C21.5053 26.6453 20.5769 26.1315 20.2455 26.1222C20.2455 26.1222 20.2848 25.8936 20.1959 25.807L19.8726 26.1996L18.8102 25.6661L19.5677 26.5529L18.9269 27.2746C18.846 27.3566 18.8564 27.4674 18.8899 27.5148L19.167 27.7596L19.5181 27.5459C19.5354 27.5332 19.5677 27.5286 19.607 27.5286C19.704 27.5286 19.8495 27.554 19.9799 27.554C20.1243 27.554 20.2478 27.524 20.2628 27.3889C20.219 27.8346 19.8056 28.6094 20.0769 29.2179L20.2778 29.6775L18.9811 29.4904L18.3738 30.517C18.1867 30.8587 18.1567 31.2282 18.3368 31.4292L18.5643 31.7144C18.5643 31.7144 18.883 31.376 18.9534 31.1532L18.8507 31.04C18.7641 30.9442 18.7687 30.8587 18.8218 30.756L19.2028 30.1232L20.7328 30.4846L20.8136 30.3461C20.9175 30.1729 21.0677 30.1221 21.2316 30.1221C21.2997 30.1221 21.369 30.1301 21.4406 30.1417C21.7247 30.1983 22.1923 30.2733 22.66 30.2733C23.1738 30.2733 23.683 30.1809 23.9544 29.8773C24.5086 30.7005 25.6333 30.831 25.5444 31.2502L25.2488 32.6612C25.4451 32.652 25.6333 32.6393 25.8123 32.615L26.094 31.1474C26.1168 31.0228 26.1369 30.8977 26.154 30.7721C26.0455 30.6613 25.7834 30.4292 25.6344 30.1463C25.437 29.7641 25.5444 29.5643 25.3596 29.0678C25.3596 29.0678 25.4174 28.9524 25.5467 28.9524V28.9535Z" fill="#FFFFFE"/>
<path fill-rule="evenodd" clip-rule="evenodd" d="M17.726 30.2879C17.726 30.2879 18.2341 30.08 18.2803 29.9299L18.211 29.7613C18.1636 29.6505 18.1694 29.5304 18.2629 29.4657L18.8103 29.0858L19.7259 29.2625C19.7259 29.2625 19.5597 29.0546 19.5758 28.7775L18.7029 28.5928L17.8784 29.0951C17.7346 29.2017 17.6306 29.3535 17.5831 29.5262C17.5356 29.6988 17.5473 29.8824 17.6163 30.0477L17.726 30.289V30.2879ZM24.2003 32.6804C24.3631 32.6734 24.5456 32.6711 24.743 32.6711C24.743 32.6711 25.2141 31.2913 25.2407 31.2474C24.8908 31.0842 24.5494 30.9034 24.2177 30.7058C24.3574 30.916 24.6969 31.155 24.6299 31.3398L24.2003 32.6804Z" fill="#FFFFFE"/>
<path fill-rule="evenodd" clip-rule="evenodd" d="M28.6828 24.4982H15.6637V29.4045C15.6637 31.4113 17.1129 32.6664 19.2525 32.6664C21.0388 32.6664 21.5099 32.7357 22.1738 33.3974C22.6322 32.9389 23.011 32.7692 23.7904 32.7045L23.8077 32.6295L24.2176 31.3582C24.1945 31.3293 23.5248 30.5661 23.5248 30.5661C23.2592 30.655 23.0352 30.67 22.6588 30.67C22.2743 30.67 21.839 30.6238 21.3667 30.536C21.3224 30.5255 21.2771 30.5201 21.2316 30.5199C21.1739 30.5199 21.1704 30.5245 21.1543 30.5534L21.0734 30.6885L20.9233 30.9356L20.6427 30.8698L19.3934 30.5753L19.2213 30.8582L19.2479 30.8894L19.3991 31.0568L19.3322 31.2762C19.2398 31.5614 18.9419 31.8951 18.8507 31.9875L18.5389 32.3223L18.2537 31.9632L18.0401 31.6942C17.8149 31.4425 17.7629 31.0568 17.89 30.6527C17.8862 30.6554 17.8818 30.657 17.8773 30.6573L17.5251 30.8039L17.3669 30.4575L17.2549 30.2139C17.1474 29.9646 17.128 29.6861 17.2 29.4244C17.272 29.1626 17.4311 28.9332 17.6509 28.774L18.6555 28.2047L19.6139 28.393C19.637 28.3006 19.6716 27.9726 19.6982 27.8884C19.6797 27.886 19.6624 27.8826 19.6439 27.8826L19.092 28.0881L18.5608 27.7209C18.5608 27.7209 18.353 27.52 18.5412 27.3191L19.055 26.5374L17.7502 24.8977L19.7559 25.7222L19.8899 25.557L20.1601 25.2314L20.4672 25.5247C20.548 25.6037 20.6041 25.7043 20.6289 25.8145C21.1808 26.0305 22.1715 26.6667 22.2593 27.7013L21.9498 27.8248V27.8329C22.0203 27.9172 22.0792 27.9519 22.0976 27.9553L23.5294 28.0962C23.5664 28.0893 23.6103 28.0731 23.6611 28.0592C23.8401 27.998 24.1068 27.9091 24.4232 27.9091C24.6818 27.9091 24.9312 27.9692 25.1702 28.0823C25.2592 28.0477 25.3665 28.0235 25.4936 28.0154L25.5628 28.0131C26.3284 28.0131 26.7094 28.5869 27.0154 29.0454C27.0662 29.125 27.1171 29.1989 27.1702 29.2728C27.4381 29.6516 27.7879 30.2047 27.8018 30.2289L27.96 30.4748L27.766 30.7012C27.6182 30.8744 27.393 31.0764 27.0097 31.0764C26.9228 31.0757 26.8362 31.0668 26.751 31.0499C26.6725 31.0348 26.5958 31.0112 26.5224 30.9794C26.5106 31.0609 26.4972 31.1422 26.482 31.2231L26.2314 32.536C27.7325 32.1665 28.6863 31.0303 28.6863 29.4045L28.6828 24.4982ZM15.6637 24.1033H25.7903C25.2846 23.5791 25.2926 22.9174 25.4208 22.4867C25.2842 22.4211 25.1572 22.3372 25.0432 22.2373C24.6472 22.5295 23.4394 23.4105 23.1241 23.6322L23.056 23.6784L19.0816 22.9578H19.0008C18.9061 22.9578 18.7664 22.9544 18.6139 22.9348C18.5976 23.0077 18.5605 23.0744 18.5071 23.1267C18.4537 23.1791 18.3862 23.2148 18.3129 23.2296C18.2396 23.2444 18.1636 23.2376 18.094 23.21C18.0245 23.1825 17.9645 23.1354 17.9211 23.0745C17.8907 23.0329 17.8689 22.9856 17.857 22.9354C17.8451 22.8852 17.8433 22.8332 17.8519 22.7823L17.8669 22.6957C17.4581 22.4071 17.0782 21.7604 17.2468 21.0792L17.263 21.0076L17.3207 20.966C17.379 20.9263 17.4391 20.8893 17.5008 20.8552L17.2122 20.809C17.1609 20.8002 17.1151 20.7717 17.0845 20.7297C17.0538 20.6876 17.0408 20.6353 17.0482 20.5838C17.0667 20.4753 17.1671 20.3991 17.2745 20.4187L17.9615 20.5272L18.0251 18.1012L19.0481 17.0158L19.6878 18.3634L19.0135 20.6981L19.6208 20.794C19.6727 20.8025 19.7191 20.8312 19.7498 20.8738C19.7805 20.9165 19.7931 20.9695 19.7848 21.0214C19.7774 21.0674 19.7537 21.1092 19.7181 21.1393C19.6826 21.1694 19.6374 21.1857 19.5908 21.1854L19.5596 21.1843L19.0643 21.1034C19.0712 21.1196 19.0804 21.1277 19.0874 21.1438C19.1425 21.2395 19.2255 21.316 19.3252 21.3632L22.354 21.4129C22.4821 21.287 22.7997 20.9753 23.1276 20.645C22.8422 20.5402 22.5916 20.358 22.4039 20.1188C22.2163 19.8795 22.099 19.5927 22.0653 19.2906C21.6496 19.1127 21.3609 18.8472 21.2016 18.5008C21.0076 18.0712 21.0769 17.6417 21.1289 17.4327C20.7247 17.286 20.2998 17.0158 19.8656 16.584H15.3023C15.4986 17.1105 15.6637 17.6809 15.6637 18.2479V24.1021V24.1033Z" fill="#FFE52B"/>
<path fill-rule="evenodd" clip-rule="evenodd" d="M19.8333 26.6248C19.8157 26.6234 19.7981 26.6255 19.7813 26.631C19.7646 26.6366 19.7491 26.6454 19.7359 26.6571C19.7227 26.6687 19.7119 26.6829 19.7042 26.6988C19.6966 26.7146 19.6922 26.7319 19.6913 26.7495C19.6899 26.7671 19.692 26.7848 19.6977 26.8015C19.7033 26.8183 19.7123 26.8337 19.724 26.8469C19.7358 26.8601 19.7501 26.8707 19.7661 26.8782C19.7821 26.8856 19.7995 26.8898 19.8171 26.8904C19.8524 26.8926 19.8872 26.8809 19.914 26.8578C19.9407 26.8347 19.9574 26.802 19.9603 26.7668C19.9622 26.7312 19.9499 26.6962 19.9261 26.6696C19.9023 26.643 19.869 26.6269 19.8333 26.6248ZM25.8677 36.913L25.273 35.2734C25.9809 35.0574 27.1967 34.5933 27.7429 34.285L27.3792 35.4778L28.6112 35.8877C27.8653 36.2618 26.9623 36.6117 25.8677 36.9119V36.913ZM22.175 38.3853C20.742 38.3853 19.107 38.055 18.6244 37.883L19.3564 35.8992C19.9638 36.077 21.227 36.2653 22.145 36.2595H22.2027C23.1195 36.2653 24.3816 36.0759 24.9924 35.8992L25.7234 37.883C25.2407 38.0562 23.6057 38.3853 22.175 38.3853ZM15.7365 35.8877L16.9697 35.4778L16.6048 34.285C17.1487 34.5933 18.368 35.0586 19.0735 35.2734L18.4789 36.913C17.3877 36.6128 16.4813 36.2618 15.7365 35.8877ZM28.6667 35.5239L27.9161 35.2353L28.124 34.4593L28.3514 33.6129C28.3514 33.6129 27.0235 34.3358 25.1495 34.8773C24.6183 35.0297 24.2165 35.1002 24.2165 35.1002V35.6764C24.2165 35.6764 23.2142 35.8496 22.2027 35.8496H22.145C21.1312 35.8496 20.1312 35.6764 20.1312 35.6764V35.099C20.1312 35.099 19.7282 35.0297 19.1971 34.8773C17.3253 34.3346 15.9974 33.6129 15.9974 33.6129L16.2215 34.4593L16.4339 35.2353L15.6811 35.5239L14.8462 35.8357C15.8023 36.2987 17.1279 36.9719 18.3403 37.3045L18.0551 38.0873C18.0551 38.0873 19.5931 38.7894 22.1554 38.7963V38.7975H22.19V38.7963C24.7557 38.7894 26.2938 38.0873 26.2938 38.0873L26.0051 37.3045C27.2187 36.9719 28.5466 36.2999 29.498 35.8357L28.6667 35.5239ZM19.0423 3.93521L19.383 3.97216L19.5296 3.6604L19.9592 2.74011L20.7559 3.15349L21.0654 3.31168L22.1715 2.21242L23.0341 3.06689L23.2812 3.31168L23.5907 3.15349L24.3828 2.74011L24.8192 3.6604L24.9636 3.97216L25.3042 3.93521L25.6298 3.89711C25.4809 4.23312 25.3712 4.55297 25.2915 4.81855C24.4313 4.33704 23.3135 4.06454 22.1727 4.06454C21.0365 4.06454 19.9188 4.33704 19.0551 4.81855C18.9619 4.5047 18.8493 4.19696 18.7179 3.89711L19.0412 3.93521H19.0423ZM22.1715 4.54373C23.6992 4.54373 24.9197 5.05179 25.5952 5.59103C25.5952 5.59103 25.7961 4.38208 26.4797 3.3163L25.2499 3.45486L24.6068 2.08656L23.3713 2.7251L22.1715 1.53809L20.9764 2.7251L19.7386 2.08656L19.0966 3.45602L17.8669 3.31515C18.5516 4.38208 18.7514 5.58988 18.7514 5.58988C19.4303 5.05064 20.6474 4.54373 22.1715 4.54373ZM41.5218 24.8789C41.5218 24.8789 40.9906 25.8061 39.7713 25.8061H39.7562C38.2921 25.7969 37.7009 24.902 37.7009 24.902C37.7009 24.902 37.7864 26.0659 37.2598 27.6374C36.6247 29.5311 37.2644 30.8821 37.2644 30.8821C37.2644 30.8821 36.9227 30.9756 36.5289 30.9756C36.3788 30.9756 36.2218 30.9606 36.0728 30.9214C34.85 30.6315 34.5452 29.5161 34.5452 29.5161C34.5452 29.5161 34.6583 33.2815 30.274 33.2815H30.2393C30.2393 33.2815 30.6262 32.7562 30.7405 31.2412C30.9483 28.4469 32.8374 28.0624 32.8374 28.0624C32.8374 28.0624 31.8293 27.9354 31.3917 27.5439C30.7093 26.9238 30.7566 26.2068 30.7566 26.2068C32.2993 26.1848 33.3108 25.6595 34.081 24.7669C34.5773 24.1958 34.9121 23.5026 35.0509 22.7589C35.0509 22.7589 34.2218 23.5129 32.618 23.5129C32.4771 23.5129 32.327 23.506 32.1723 23.491C31.4125 23.4298 30.8883 22.946 30.8883 22.946C32.5579 21.8733 33.7288 20.0015 32.6907 17.1841C31.8594 14.9267 29.8594 13.2397 27.8468 11.9695C27.1771 11.5504 26.803 11.0839 26.803 10.6832C26.803 9.73982 28.1424 9.70979 28.6921 9.07587C29.3271 8.33918 28.9288 7.14408 28.3791 6.42471C28.3791 6.42471 28.5639 6.38661 28.856 6.38661C29.4357 6.38661 30.4379 6.5321 31.2624 7.38888C32.3559 8.52278 31.9021 9.75829 31.9021 9.75829L32.1954 9.81602C32.3709 9.85182 32.5452 9.8599 32.7265 9.86914L32.8443 9.8703C34.4343 9.8703 35.1444 8.20524 35.1444 8.20524C35.1444 8.20524 36.8349 10.2883 34.3465 11.921C33.9182 12.1993 33.7288 12.4591 33.7784 12.7339L33.8177 12.9152L33.9944 12.9464C35.798 13.4371 36.7113 14.6842 37.8256 16.0998C39.5184 18.2556 41.9132 18.3249 42.2076 18.3249H42.24C42.24 18.3249 41.6938 20.0535 40.083 20.0535C40.0565 20.0535 40.0334 20.0535 40.0068 20.0512C39.2678 20.0246 38.8868 19.7405 38.8868 19.7405C38.8868 19.7405 38.5993 23.663 41.5218 24.8789ZM40.083 20.5823C42.0575 20.5823 42.718 18.5697 42.7457 18.4842L42.9651 17.7741L42.2261 17.7972H42.2238C41.9617 17.7972 39.784 17.7395 38.2401 15.773L38.0935 15.5906C37.0843 14.3054 36.1271 13.0826 34.4158 12.5249C34.4842 12.465 34.5572 12.4106 34.6341 12.3621C35.5416 11.764 36.0705 11.0377 36.2021 10.1936C36.3973 8.92461 35.5878 7.9131 35.5532 7.87154L35.0036 7.19027L34.6595 7.99855C34.6364 8.0482 34.059 9.34145 32.8443 9.34145H32.7542C32.6711 9.33799 32.5914 9.33452 32.5129 9.32759C32.5556 8.75025 32.4506 7.85883 31.6423 7.02053C30.6712 6.01249 29.4795 5.86123 28.856 5.86123C28.5235 5.86123 28.3018 5.9028 28.2775 5.90511L27.4473 6.07023L27.9588 6.74572C28.3607 7.26763 28.7255 8.22949 28.2937 8.73178C28.1551 8.89343 27.8711 9.0216 27.5997 9.15208C27.0409 9.40958 26.2765 9.76984 26.2765 10.6832C26.2765 11.2744 26.7349 11.8945 27.5662 12.4198C30.0234 13.9683 31.5407 15.5848 32.1954 17.3688C33.2092 20.1124 31.8871 21.6781 30.6019 22.5026L30.0269 22.8732L30.5315 23.3374C30.5996 23.3974 31.215 23.9413 32.1261 24.0198C32.2993 24.0314 32.4644 24.0406 32.6191 24.0406C33.2023 24.0406 33.6999 23.9482 34.1041 23.8258C33.9833 24.0366 33.8425 24.2354 33.6838 24.4193C32.9505 25.2715 32.0476 25.6595 30.7485 25.6802L30.2659 25.6872L30.2289 26.1721C30.2243 26.2703 30.1885 27.1698 31.0372 27.9342C31.1677 28.052 31.3247 28.1501 31.4899 28.2286C30.9125 28.7482 30.3282 29.6535 30.2151 31.2031C30.1192 32.4964 29.8109 32.9756 29.8075 32.9813L29.274 33.7965L30.2382 33.8092C31.8305 33.8092 33.0498 33.3705 33.8939 32.4975C34.3311 32.039 34.6574 31.4864 34.8477 30.8821C35.3166 31.2819 35.9127 31.5014 36.5289 31.501C36.9792 31.501 37.3557 31.4052 37.3972 31.3959L38.0127 31.232L37.7413 30.6569C37.7205 30.6108 37.2079 29.4561 37.7598 27.8083C37.9977 27.0959 38.1189 26.4585 38.1778 25.9608C38.5658 26.1641 39.0842 26.3303 39.7551 26.3326C41.2793 26.3326 41.9502 25.193 41.9802 25.1456L42.2804 24.6214L41.7238 24.3928C39.9087 23.6376 39.5068 21.61 39.426 20.513C39.5911 20.5442 39.7782 20.5731 39.9895 20.5788L40.083 20.5823Z" fill="#1A1919"/>
<path fill-rule="evenodd" clip-rule="evenodd" d="M37.8649 11.9742C38.2321 11.9742 38.6616 12.1001 39.0657 12.5192C40.3382 13.8125 41.5218 13.8852 41.5218 13.8852C41.307 14.3621 40.6835 14.7813 40.038 14.7813C39.889 14.7813 39.7378 14.7582 39.5911 14.7062C38.7147 14.4106 38.4018 13.0954 36.8649 12.2768C36.8649 12.2768 37.2921 11.9742 37.8649 11.9742ZM36.6143 12.7433C37.3499 13.1358 37.7794 13.6635 38.1558 14.13C38.5253 14.5861 38.8752 15.0249 39.426 15.2074C39.62 15.2743 39.8267 15.3067 40.038 15.3067C40.8613 15.3067 41.6892 14.8009 42.0033 14.1012L42.3185 13.4014L41.5552 13.3552C41.5194 13.3552 40.5368 13.264 39.4445 12.1463C38.9941 11.6867 38.4503 11.4465 37.8649 11.4465C37.149 11.4465 36.6178 11.8045 36.5601 11.8414L35.858 12.3368L36.6143 12.7433ZM36.9596 19.7303V19.7568C36.5162 16.175 33.9205 13.5885 31.0303 12.0158C30.7647 11.8726 30.5164 11.7502 30.2774 11.6348C31.1561 11.771 32.5729 11.7872 33.6676 10.838C33.6676 10.838 31.9933 12.0701 28.5673 10.95C29.5142 11.5666 31.3582 12.4373 33.0417 13.846C37.2483 17.5502 34.2392 21.1621 34.2392 21.1621C35.7518 19.5813 35.8141 17.8885 35.3684 16.5052C36.1652 17.8331 36.6732 19.4439 36.5947 21.4311C36.4792 24.2774 34.917 26.7392 33.2738 28.7172C32.484 29.6756 32.3085 30.8556 32.3085 30.8556C32.3085 30.8556 32.6272 29.8153 33.5406 28.7449C35.3015 26.678 36.8083 24.5337 37.0046 21.4415C37.1871 22.0038 37.9376 23.5627 39.1269 24.1504C39.1269 24.1504 37.6316 23.2474 36.9596 19.7303ZM14.0737 33.2816C9.68938 33.2816 9.80139 29.5162 9.80139 29.5162C9.80139 29.5162 9.49424 30.6316 8.27374 30.9215C8.12465 30.959 7.97136 30.9772 7.81764 30.9757C7.42504 30.9757 7.08326 30.8834 7.08326 30.8834C7.08326 30.8834 7.7218 29.5301 7.08557 27.6375C6.56134 26.0672 6.64679 24.9021 6.64679 24.9021C6.64679 24.9021 6.05674 25.797 4.59145 25.8062H4.57643C3.35824 25.8062 2.82593 24.879 2.82593 24.879C5.74729 23.6631 5.46092 19.7406 5.46092 19.7406C5.46092 19.7406 5.07988 20.0247 4.34088 20.0524H4.26351C2.65157 20.0524 2.10541 18.325 2.10541 18.325H2.13889C2.4368 18.325 4.82816 18.2557 6.51977 16.0999C7.63404 14.6831 8.54855 13.4372 10.3487 12.9476L10.53 12.9153L10.5681 12.734C10.6189 12.4592 10.4295 12.1994 10.0023 11.9211C7.51395 10.2884 9.20326 8.20649 9.20326 8.20649C9.20326 8.20649 9.90993 9.8704 11.5045 9.8704L11.62 9.86924C11.8001 9.86 11.9768 9.85192 12.1512 9.81497L12.4445 9.75839C12.4445 9.75839 11.9895 8.52288 13.0865 7.38898C13.9109 6.5322 14.912 6.38671 15.4905 6.38671C15.785 6.38671 15.9663 6.42481 15.9663 6.42481C15.4189 7.14418 15.0217 8.33928 15.6545 9.07597C16.2041 9.70989 17.5424 9.73992 17.5424 10.6833C17.5424 11.084 17.1694 11.5505 16.5009 11.9696C14.4859 13.2398 12.4872 14.9256 11.6558 17.1853C10.6189 20.0028 11.7898 21.8733 13.4606 22.9472C13.4606 22.9472 12.9352 23.4299 12.1754 23.4911C12.0265 23.5054 11.877 23.5127 11.7274 23.513C10.1247 23.513 9.29563 22.7601 9.29563 22.7601C9.29563 22.7601 9.4342 23.8005 10.2633 24.7681C11.0369 25.6596 12.0472 26.1849 13.5888 26.2069C13.5888 26.2069 13.6384 26.9228 12.956 27.544C12.5184 27.9366 11.5103 28.0636 11.5103 28.0636C11.5103 28.0636 13.4005 28.447 13.6084 31.2413C13.7215 32.7563 14.1049 33.2816 14.1049 33.2816H14.0737ZM14.5391 32.9814C14.5379 32.9756 14.2319 32.4965 14.1338 31.2032C14.0183 29.6536 13.434 28.7483 12.8555 28.2287C13.023 28.1502 13.1788 28.0521 13.3082 27.9343C14.1569 27.1699 14.1211 26.2715 14.1153 26.1722L14.083 25.6873L13.5968 25.6803C12.3013 25.6596 11.3972 25.2716 10.6639 24.4194C10.5059 24.2349 10.3652 24.0363 10.2436 23.8259C10.6478 23.9495 11.142 24.0407 11.7274 24.0407C11.8833 24.0407 12.0472 24.0315 12.2193 24.0199C12.8086 23.9611 13.3659 23.7233 13.8162 23.3386L14.3208 22.8733L13.7458 22.5038C12.4572 21.6782 11.1397 20.1136 12.1523 17.3689C12.807 15.5849 14.3208 13.9695 16.7826 12.4199C17.614 11.8946 18.0689 11.2745 18.0689 10.6833C18.0689 9.76994 17.3068 9.40968 16.748 9.15218C16.4755 9.0217 16.1914 8.89238 16.054 8.73188C15.621 8.22959 15.9847 7.26773 16.3877 6.74582L16.9027 6.07033L16.0679 5.90521C16.0448 5.90174 15.8254 5.86133 15.4905 5.86133C14.8681 5.86133 13.6777 6.01259 12.7077 7.02063C11.8983 7.85893 11.7921 8.75151 11.8336 9.32769C11.7551 9.33462 11.6766 9.33809 11.5935 9.34155H11.5045C10.2852 9.34155 9.71017 8.0483 9.68823 7.99865L9.34529 7.19037L8.79104 7.87164C8.75986 7.9132 7.94812 8.92471 8.14672 10.1937C8.2772 11.0366 8.80605 11.7641 9.71363 12.3622C9.81293 12.4257 9.88106 12.48 9.93071 12.525C8.21716 13.0827 7.26223 14.3055 6.25304 15.5907L6.10755 15.7731C4.56489 17.7396 2.38138 17.7985 2.12042 17.7985L1.3768 17.7754L1.60312 18.4843C1.62968 18.5698 2.28785 20.5824 4.26351 20.5824L4.3582 20.5789C4.5672 20.5732 4.75541 20.5443 4.92169 20.512C4.84086 21.6089 4.43672 23.6377 2.62155 24.3917L2.0673 24.6227L2.36752 25.1457C2.39523 25.1931 3.06957 26.3327 4.59606 26.3327C5.14242 26.3382 5.68198 26.2114 6.16875 25.9632C6.22763 26.4598 6.35003 27.096 6.5879 27.8084C7.13984 29.455 6.626 30.6109 6.60637 30.657L6.33387 31.2321L6.94931 31.3949C6.99088 31.4064 7.36962 31.5011 7.81764 31.5011C8.43406 31.5027 9.0306 31.2831 9.49886 30.8822C9.66629 31.3983 9.9538 31.9815 10.4515 32.4976C11.299 33.3694 12.5172 33.8093 14.1084 33.8093L15.0725 33.7966L14.5391 32.9814Z" fill="#1A1919"/>
<path fill-rule="evenodd" clip-rule="evenodd" d="M5.27969 12.5198C5.68614 12.1006 6.11452 11.9736 6.48402 11.9736C7.05213 11.9736 7.48283 12.2773 7.48283 12.2773C5.94709 13.0971 5.63071 14.4111 4.75315 14.7079C4.61023 14.7574 4.45985 14.782 4.30859 14.7806C3.66313 14.7806 3.03844 14.3626 2.82598 13.8857C2.82598 13.8857 4.00838 13.813 5.27969 12.5198ZM4.30859 15.3072C4.5199 15.3072 4.72659 15.2748 4.92289 15.2079C5.47252 15.0254 5.82354 14.5878 6.19304 14.1305C6.57062 13.6652 6.99555 13.1375 7.73224 12.7449L8.48971 12.3373L7.78535 11.8408C7.72762 11.805 7.19993 11.4482 6.48402 11.4482C5.89744 11.4482 5.35243 11.6872 4.90326 12.1468C3.80977 13.2657 2.82944 13.3557 2.79365 13.3569L2.03156 13.4019L2.34332 14.1028C2.6597 14.8014 3.48646 15.3072 4.30859 15.3072ZM7.75302 21.4316C7.67219 19.4444 8.18026 17.8336 8.97699 16.5057C8.53359 17.889 8.59363 19.5818 10.1086 21.1637C10.1086 21.1637 7.09716 17.5496 11.306 13.8476C12.9895 12.4378 14.8312 11.5671 15.7781 10.9505C12.3533 12.0706 10.6801 10.8374 10.6801 10.8374C11.7736 11.7877 13.1904 11.7727 14.0692 11.6341C13.8313 11.7507 13.5819 11.872 13.3163 12.0163C10.4261 13.5878 7.83154 16.1755 7.38583 19.7573V19.7308C6.71496 23.2479 5.2208 24.1509 5.2208 24.1509C6.41012 23.562 7.15836 22.0032 7.3408 21.442C7.5394 24.5343 9.04512 26.6797 10.8049 28.7454C11.7194 29.8158 12.0404 30.8562 12.0404 30.8562C12.0404 30.8562 11.8625 29.6772 11.0693 28.7177C9.42963 26.7397 7.86849 24.2779 7.75302 21.4316ZM21.1832 14.1837V14.8949C21.428 14.5959 21.8991 14.6571 21.8991 14.6571V15.6813C21.8991 15.6813 21.8841 16.1847 21.7051 16.403H22.7281C22.5503 16.1847 22.533 15.6813 22.533 15.6813V14.6571C22.533 14.6571 23.0064 14.5959 23.2489 14.8949V14.1837H21.182H21.1832ZM20.7444 9.97137C21.0712 10.2312 21.2605 10.275 21.2663 10.2785L21.3933 10.3374V9.66884L20.1924 9.16309C20.1924 9.16309 20.2028 9.55106 20.7444 9.97137ZM23.6011 9.97137C24.1438 9.55106 24.1553 9.16309 24.1553 9.16309L22.9533 9.66884V10.3386L23.0803 10.2785C23.0861 10.275 23.2743 10.2312 23.6011 9.97137Z" fill="#1A1919"/>
<path fill-rule="evenodd" clip-rule="evenodd" d="M22.1727 8.18988L19.2779 7.04444C19.5238 6.46017 20.6589 5.96365 22.1727 5.9625C23.6876 5.96365 24.8227 6.46017 25.0686 7.04444L22.1727 8.18988ZM24.3308 11.7798L22.3852 12.8075V8.64598L25.0259 7.74764L24.3308 11.7775V11.7798ZM25.5363 12.8837L26.4254 13.401H26.4381L26.6621 13.5315C26.1598 13.67 25.7753 13.9229 25.4532 14.2531L25.4185 14.2878C25.3426 14.3688 25.2697 14.4528 25.2003 14.5395L25.1599 14.5926C25.0906 14.6815 25.0248 14.7727 24.9636 14.8674L24.9301 14.9148C24.8552 15.0291 24.784 15.1458 24.7165 15.2646C24.0814 16.3581 23.071 17.0117 22.1727 17.014C21.2744 17.0117 20.2628 16.3581 19.6301 15.2646C19.5628 15.148 19.4923 15.0333 19.4188 14.9205L19.3772 14.8593C19.3169 14.7702 19.2545 14.6824 19.1901 14.5961C19.174 14.573 19.159 14.5557 19.1428 14.536C19.075 14.4518 19.0045 14.3698 18.9315 14.2901C18.9165 14.2785 18.9061 14.2635 18.8922 14.2508C18.5623 13.9054 18.1443 13.6566 17.6833 13.5315L17.9096 13.401H17.9188L18.8114 12.8837L19.7248 12.3583L22.1681 13.6908L22.1727 13.6862L22.1796 13.6908L24.6218 12.3583L25.5363 12.8837ZM29.0465 16.5833C28.8468 17.1098 28.6817 17.6802 28.6817 18.2472L28.684 21.9075C27.9207 21.7805 27.8295 20.9561 27.8272 20.9203L27.8133 20.7529L27.6482 20.7379C27.3682 20.7132 27.1066 20.5881 26.9115 20.3857C26.5363 20.0104 26.5363 19.403 26.5363 19.3973C26.5316 19.4284 26.1252 19.9977 26.5963 20.6212C26.7949 20.8845 27.0836 21.0473 27.4554 21.1108C27.5431 21.5669 27.8826 22.2124 28.684 22.3117V24.1014H26.4312C25.392 23.523 25.8319 22.5045 25.8527 22.4606L25.9404 22.2667L25.7418 22.1916C24.616 21.7736 24.9266 20.6489 24.9416 20.6004L24.9878 20.4365L24.8331 20.3649C23.9047 19.933 24.0306 18.7714 24.0433 18.7229C23.7569 18.955 23.6542 19.4273 23.8505 19.8926C23.7442 20.015 23.601 20.1617 23.4452 20.3233C23.1739 20.2641 22.9297 20.1172 22.7503 19.9054C22.5708 19.6936 22.466 19.4286 22.4521 19.1513L22.451 19.0151L22.324 18.9666C21.9487 18.828 21.6912 18.6178 21.563 18.3373C21.421 18.0266 21.4706 17.7022 21.5099 17.544C21.7257 17.5887 21.9454 17.6119 22.1658 17.6133H22.1808C22.2928 17.6133 22.4025 17.6063 22.511 17.596C23.1115 17.5359 23.7812 17.2784 24.4809 16.5833H29.0465ZM26.2314 32.5353L26.4831 31.2224L26.5236 30.9799C26.6789 31.0408 26.844 31.0732 27.0108 31.0757C27.3942 31.0757 27.6182 30.8725 27.7671 30.7005L27.9588 30.4753L27.8018 30.2282C27.7879 30.204 27.4381 29.6509 27.1702 29.2721C27.117 29.1973 27.0657 29.1211 27.0166 29.0435C26.7106 28.5862 26.3284 28.0124 25.5617 28.0124L25.4936 28.0147C25.3832 28.0206 25.2742 28.0428 25.1703 28.0805C24.937 27.9689 24.6818 27.9106 24.4232 27.9096C24.163 27.9159 23.9058 27.9658 23.6622 28.0574C23.6114 28.0724 23.5652 28.0886 23.5295 28.0955L22.0976 27.9546C22.0792 27.95 22.0214 27.9154 21.9498 27.8322V27.8242L22.2593 27.7006C22.1727 26.666 21.1808 26.0298 20.6289 25.8138C20.6044 25.7032 20.5482 25.6021 20.4672 25.5229L20.1601 25.2307L19.8899 25.5552L19.7571 25.7215L17.7503 24.8959L19.055 26.5367L18.5412 27.3184C18.3518 27.5182 18.5608 27.7202 18.5608 27.7202L19.092 28.0874L19.6439 27.8807C19.6624 27.8807 19.6786 27.8854 19.6982 27.8877C19.6716 27.972 19.637 28.301 19.6139 28.3923L18.6567 28.204L17.6521 28.7733C17.1336 29.1544 17.0632 29.7825 17.256 30.2132L17.3669 30.458L17.5251 30.8032L17.8773 30.6578C17.883 30.6554 17.8877 30.6543 17.8911 30.6508C17.7641 31.0561 17.8161 31.4406 18.0412 31.6935L18.2548 31.9625L18.5389 32.3228L18.8507 31.9868C18.943 31.8944 19.241 31.5607 19.3322 31.2744L19.3991 31.0561L19.2479 30.8887L19.2225 30.8575L19.3934 30.5746L20.6427 30.8702L20.9245 30.9349L21.0746 30.6866L21.1554 30.5527C21.1704 30.5238 21.1739 30.5192 21.2316 30.5192C21.2767 30.5192 21.3205 30.5238 21.3679 30.5354C21.7939 30.6195 22.2269 30.6639 22.6611 30.6681C23.0341 30.6681 23.2593 30.6543 23.5248 30.5654C23.5248 30.5654 24.1957 31.3275 24.2188 31.3575L23.8077 32.6276L23.7893 32.7039C23.0122 32.7674 22.6334 32.9383 22.175 33.3967C21.5099 32.7362 21.0399 32.6658 19.2537 32.6658C17.114 32.6658 15.6637 31.4106 15.6637 29.4026V24.4975H28.684L28.6863 29.4026C28.6863 31.0296 27.7325 32.1646 26.2314 32.5353ZM18.2121 29.7617L18.2803 29.9315C18.2341 30.0793 17.726 30.2894 17.726 30.2894L17.6175 30.0481C17.5481 29.8827 17.5363 29.6988 17.5838 29.5259C17.6313 29.353 17.7355 29.201 17.8796 29.0943L18.7029 28.592L19.577 28.7768C19.5596 29.055 19.7259 29.2629 19.7259 29.2629L18.8114 29.0874L18.2629 29.4661C18.1706 29.5308 18.1636 29.6509 18.2121 29.7617ZM26.0929 31.1473L25.8123 32.6149C25.6321 32.6403 25.4428 32.6542 25.2488 32.6611L25.5444 31.2524C25.6321 30.8321 24.5098 30.7016 23.9544 29.8783C23.683 30.1832 23.1738 30.2744 22.6611 30.2744C22.1923 30.2744 21.7258 30.1993 21.4406 30.1428C21.372 30.1308 21.3025 30.1243 21.2328 30.1231C21.0677 30.1231 20.9187 30.1739 20.8148 30.3483L20.734 30.4869L19.2028 30.1254L18.8218 30.7571C18.7687 30.8598 18.7641 30.9453 18.8507 31.0411L18.9546 31.1543C18.883 31.3771 18.5643 31.7154 18.5643 31.7154L18.3368 31.4302C18.1567 31.2293 18.1867 30.8598 18.3738 30.518L18.9811 29.4904L20.2779 29.6786L20.0769 29.2179C19.8056 28.6093 20.219 27.8357 20.2628 27.39C20.2478 27.5251 20.1243 27.5551 19.9811 27.5551C19.8495 27.5551 19.704 27.5309 19.607 27.5309C19.5689 27.5309 19.5354 27.5343 19.5181 27.547L19.167 27.7606L18.8899 27.5159C18.8564 27.4697 18.846 27.3577 18.9269 27.2745L19.5689 26.554L18.8114 25.6672L19.8714 26.2018L20.1959 25.8081C20.2848 25.8958 20.2455 26.1233 20.2455 26.1233C20.5769 26.1325 21.5064 26.6464 21.5549 27.8472C21.5584 27.8842 21.5584 27.9246 21.5584 27.965L21.5827 28.0043C21.6485 28.0955 21.8298 28.3276 22.0595 28.3484L23.526 28.4939H23.5318C23.6934 28.4939 24.0133 28.3045 24.4232 28.3045C24.6483 28.3045 24.8966 28.3622 25.1622 28.5297C25.1622 28.5297 25.2961 28.4234 25.512 28.4119C25.5282 28.4096 25.5467 28.4096 25.5617 28.4096C26.2199 28.4096 26.4935 29.0054 26.8469 29.5008C27.1124 29.8772 27.4669 30.4361 27.4669 30.4361C27.3365 30.5919 27.2141 30.6785 27.0097 30.6785C26.9461 30.6788 26.8826 30.6726 26.8203 30.6601C26.1159 30.5296 26.0132 29.0781 25.6114 28.9627C25.5903 28.9571 25.5685 28.9544 25.5467 28.9546C25.4174 28.9546 25.3608 29.0701 25.3608 29.0701C25.5455 29.5654 25.437 29.7652 25.6356 30.1474C25.7834 30.4303 26.0455 30.6624 26.1541 30.7732C26.1541 30.7732 26.1252 30.988 26.0929 31.1485V31.1473ZM24.743 32.6715C24.5467 32.6715 24.3643 32.6738 24.2003 32.6808L24.6299 31.3402C24.6968 31.1543 24.3574 30.9152 24.2176 30.7051C24.429 30.839 24.9774 31.1323 25.2419 31.2478C25.0705 31.7206 24.9042 32.1952 24.743 32.6715ZM18.3553 20.5912L18.4165 18.2611L18.9384 17.708L19.2664 18.3961L18.6197 20.6328L18.3542 20.5924L18.3553 20.5912ZM18.7306 21.314C18.8098 21.4658 18.9298 21.5926 19.077 21.6801C19.073 21.9015 19.0517 22.1224 19.0135 22.3406C19.0019 22.3914 18.9904 22.4387 18.9754 22.486C18.9684 22.5161 18.9592 22.5403 18.9534 22.5599C18.7929 22.5599 18.48 22.5403 18.2248 22.4468C17.9408 22.3429 17.517 21.8209 17.6152 21.2459C17.7376 21.1709 18.0216 21.0104 18.2883 21.0104C18.4927 21.0104 18.6324 21.1074 18.7306 21.314ZM24.7765 21.9399C24.3758 22.2366 23.3412 22.993 22.966 23.2562L19.3541 22.605L19.3795 22.5091C19.4257 22.3209 19.4754 22.0646 19.4777 21.7632L22.5133 21.8117L22.5711 21.754C22.6173 21.7078 23.5791 20.776 24.0687 20.2413C24.1853 20.388 24.3308 20.5265 24.5225 20.6489C24.4578 21.0069 24.4844 21.5126 24.7765 21.9399ZM19.8656 16.5833C20.301 17.0151 20.7247 17.2842 21.1289 17.432C21.0769 17.6398 21.0076 18.0717 21.2016 18.5001C21.361 18.8465 21.6496 19.1121 22.0665 19.2899C22.1127 19.7171 22.3817 20.3603 23.1288 20.6443C22.8008 20.9746 22.4822 21.2863 22.3551 21.411L19.3252 21.3637C19.2252 21.3158 19.1421 21.2385 19.0874 21.142C19.0816 21.127 19.0712 21.1189 19.0643 21.1027L19.5596 21.1836L19.5908 21.1847C19.6374 21.185 19.6826 21.1687 19.7181 21.1386C19.7537 21.1085 19.7774 21.0667 19.7848 21.0207C19.7932 20.969 19.7807 20.9161 19.7502 20.8735C19.7197 20.8309 19.6737 20.802 19.622 20.7933L19.0135 20.6963L19.6878 18.3627L19.0493 17.0151L18.0251 18.1005L17.9627 20.5265L17.2745 20.4168C17.1683 20.3961 17.0667 20.4746 17.047 20.582C17.0394 20.6339 17.0523 20.6869 17.0832 20.7294C17.1141 20.7719 17.1604 20.8006 17.2122 20.8094L17.5008 20.8533C17.3969 20.9122 17.3288 20.9596 17.3207 20.9653L17.263 21.0069L17.2468 21.0785C17.0794 21.7597 17.4581 22.4064 17.8669 22.695L17.8519 22.7816C17.8357 22.8856 17.8588 22.9895 17.9211 23.0738C17.9566 23.125 18.0041 23.1667 18.0595 23.1953C18.1149 23.2239 18.1764 23.2385 18.2387 23.2377C18.3262 23.237 18.4109 23.2068 18.479 23.1518C18.5471 23.0969 18.5947 23.0206 18.614 22.9352C18.7664 22.9525 18.9061 22.9572 19.0008 22.9572H19.0828L23.056 23.6765L23.1242 23.6315C23.4405 23.4098 24.6483 22.5288 25.0432 22.2366C25.1529 22.3302 25.2742 22.4156 25.4208 22.486C25.2927 22.9167 25.2846 23.5784 25.7903 24.1026H15.6637V18.2483C15.6637 17.6802 15.4986 17.1098 15.3023 16.5833H19.8656ZM19.3183 7.74995L21.9614 8.64714V12.8063L20.0157 11.7786L19.3183 7.74879V7.74995ZM25.7661 7.24766C25.7661 6.23269 24.0606 5.31934 22.1785 5.31934H22.1669C20.2848 5.31934 18.5805 6.23269 18.5805 7.24766L18.6174 7.49707L19.3691 11.8191L18.614 12.2578L16.6614 13.401H16.6683C16.6683 13.401 16.2295 13.6273 16.0252 13.7659C15.2815 14.2832 15.1233 15.0383 15.5552 15.3501C15.6614 14.7346 16.1475 14.0915 17.0563 14.0915C17.7121 14.0915 18.211 14.431 18.6151 14.9379C18.719 15.066 18.8172 15.2034 18.9084 15.3501C19.0216 15.536 19.1359 15.7 19.2479 15.857H14.2158C14.5853 16.6018 14.9374 17.3904 14.9374 18.2472V29.4038C14.9374 32.1034 17.0101 33.392 19.2525 33.392C20.9857 33.392 21.2189 33.3135 22.175 34.2673C23.1265 33.3135 23.3609 33.392 25.0952 33.392C27.3388 33.392 29.408 32.1034 29.408 29.4038V18.2472C29.408 17.3904 29.7601 16.6018 30.1319 15.857H25.0975C25.2107 15.7 25.3238 15.536 25.437 15.3501C25.5294 15.2034 25.6275 15.066 25.7291 14.9379C26.1356 14.4286 26.6344 14.0915 27.2903 14.0915C28.199 14.0915 28.684 14.7346 28.7914 15.3501C29.2232 15.0383 29.0673 14.2832 28.3179 13.7659C28.1193 13.6273 27.6782 13.401 27.6782 13.401H27.6863L25.7291 12.2578L24.9786 11.8191L25.7291 7.49707L25.7661 7.24766Z" fill="#1A1919"/>
<path d="M58.1019 25.8432H61.566V17.7835H66.3233V14.8506H53.3446V17.7835H58.1019V25.8432ZM76.8309 14.8506L71.0575 21.2475V14.8506H67.7089V25.8432H70.6649L76.4383 19.4462V25.8432H79.7869V14.8506H76.8309ZM85.6723 21.7556H91.0532V25.8432H94.4018V14.8506H91.0532V18.8689H85.6723V14.8506H82.3237V25.8432H85.6723V21.7556ZM103.727 25.8432C104.489 25.8432 105.182 25.7739 105.829 25.5892C107.561 25.1042 108.692 23.6955 108.692 21.7787C108.692 19.9543 107.722 18.6841 106.175 18.1068C105.436 17.8297 104.558 17.8066 103.727 17.8066H100.286V14.8506H96.9374V25.8432H103.727ZM100.286 20.3931H103.15C103.612 20.3931 104.05 20.3931 104.443 20.5316C104.997 20.7164 105.32 21.1783 105.32 21.7325C105.32 22.3099 104.997 22.7948 104.466 23.0258C104.097 23.1874 103.727 23.1874 103.15 23.1874H100.286V20.3931ZM113.773 21.6863H114.697L118.692 25.8432H123.149L117.583 20.116L122.941 14.8506H118.738L114.697 18.9844H113.773V14.8506H110.424V25.8432H113.773V21.6863Z" fill="black"/>
<path d="M130.039 14.5499C125.536 14.5499 122.834 17.0902 122.834 20.3695C122.834 23.6488 125.536 26.1891 130.039 26.1891C134.519 26.1891 137.221 23.6488 137.221 20.3695C137.221 17.0902 134.519 14.5499 130.039 14.5499ZM130.039 23.5102C127.799 23.5102 126.367 22.1708 126.367 20.3695C126.367 18.5682 127.799 17.2518 130.039 17.2518C132.256 17.2518 133.711 18.5682 133.711 20.3695C133.711 22.1708 132.256 23.5102 130.039 23.5102ZM148.373 15.3351V14.2266H145.024V15.3351C140.821 15.4274 138.304 17.2056 138.304 20.3464C138.304 23.4871 140.821 25.1268 145.024 25.2192V26.3277H148.373V25.2192C152.599 25.1268 155.116 23.4871 155.116 20.3464C155.116 17.2056 152.599 15.4274 148.373 15.3351ZM145.024 22.8636C142.715 22.7712 141.699 21.8244 141.699 20.3464C141.699 18.8684 142.715 17.8061 145.024 17.7137V22.8636ZM148.373 22.8636V17.7137C150.705 17.8061 151.698 18.8684 151.698 20.3464C151.698 21.8244 150.705 22.7712 148.373 22.8636ZM166.257 15.3351V14.2266H162.908V15.3351C158.705 15.4274 156.188 17.2056 156.188 20.3464C156.188 23.4871 158.705 25.1268 162.908 25.2192V26.3277H166.257V25.2192C170.483 25.1268 173 23.4871 173 20.3464C173 17.2056 170.483 15.4274 166.257 15.3351ZM162.908 22.8636C160.599 22.7712 159.583 21.8244 159.583 20.3464C159.583 18.8684 160.599 17.8061 162.908 17.7137V22.8636ZM166.257 22.8636V17.7137C168.589 17.8061 169.582 18.8684 169.582 20.3464C169.582 21.8244 168.589 22.7712 166.257 22.8636Z" fill="black"/>
</svg>
