<svg width="63" height="82" viewBox="0 0 63 82" fill="none" xmlns="http://www.w3.org/2000/svg">
<path d="M5 82C2.23857 82 -9.78513e-08 79.7614 -2.18557e-07 77L-3.36578e-06 5C-3.48648e-06 2.23858 2.23857 -9.78513e-08 5 -2.18557e-07L46.7537 -2.04367e-06C48.9741 -2.14073e-06 50.9286 1.46442 51.5523 3.5955L62.0889 39.5955C62.3573 40.5126 62.3573 41.4874 62.0889 42.4045L51.5523 78.4045C50.9286 80.5356 48.9741 82 46.7537 82L5 82Z" fill="#005AFF"/>
<path d="M44.1278 20.5053C43.6651 20.224 43.0626 20.362 42.7686 20.8167L41.022 23.5176C40.9173 23.6794 40.8617 23.868 40.8617 24.0607V27.9656C40.8617 28.1177 40.827 28.2677 40.7603 28.4043L35.1275 39.9422C35.058 40.0846 34.9556 40.2084 34.8289 40.3035L27.2161 46.0128C26.8351 46.2985 26.7085 46.8132 26.9134 47.2431L27.5618 48.6031C27.7314 48.9588 27.6762 49.3809 27.421 49.6811L25.1816 52.315C25.0583 52.46 24.8961 52.5669 24.7141 52.6229L21.1901 53.708C20.9422 53.7843 20.7337 53.9539 20.6085 54.1811L18.2367 58.4852C18.0976 58.7375 17.8564 58.9176 17.5749 58.9793L10.2932 60.5752C9.64479 60.7173 9.31225 61.4402 9.62627 62.0251L9.98142 62.6865C10.1301 62.9634 10.4002 63.1543 10.7108 63.2019L15.6344 63.9573C15.8166 63.9852 16.0029 63.9623 16.1729 63.891L22.2745 61.3311C22.4591 61.2537 22.6161 61.1227 22.7254 60.955L24.3339 58.4874C24.4144 58.3639 24.4667 58.224 24.4868 58.0778L24.75 56.1675C24.8181 55.6727 25.2411 55.304 25.7406 55.304H27.1998C27.4148 55.304 27.6241 55.2347 27.7967 55.1064L32.5835 51.5454C32.6268 51.5131 32.6675 51.4774 32.7051 51.4386L37.5702 46.4128C37.6319 46.3491 37.7018 46.2938 37.778 46.2485L39.5112 45.2191C39.9678 44.9479 40.1328 44.3672 39.8871 43.8965L39.7351 43.6056C39.4879 43.132 39.6566 42.5477 40.1182 42.2787L41.2632 41.6115C41.4449 41.5057 41.5886 41.3453 41.6738 41.1531L43.1992 37.7158C43.2633 37.5713 43.2922 37.4137 43.2836 37.2559L43.0389 32.7577C43.032 32.6307 43.0494 32.5036 43.0901 32.3831L44.5348 28.1109C44.5622 28.0298 44.5791 27.9454 44.5851 27.8599L44.8506 24.0352C44.8601 23.8985 44.8976 23.7651 44.9609 23.6435L45.5689 22.4733C45.8115 22.0063 45.6507 21.4311 45.201 21.1577L44.1278 20.5053Z" stroke="white" stroke-width="2" stroke-miterlimit="10" stroke-linecap="round" stroke-linejoin="round"/>
</svg>
