<svg width="63" height="82" viewBox="0 0 63 82" fill="none" xmlns="http://www.w3.org/2000/svg">
<path d="M5 82C2.23857 82 -9.78513e-08 79.7614 -2.18557e-07 77L-3.36578e-06 5C-3.48648e-06 2.23858 2.23857 -9.78513e-08 5 -2.18557e-07L46.7537 -2.04367e-06C48.9741 -2.14073e-06 50.9286 1.46442 51.5523 3.5955L62.0889 39.5955C62.3573 40.5126 62.3573 41.4874 62.0889 42.4045L51.5523 78.4045C50.9286 80.5356 48.9741 82 46.7537 82L5 82Z" fill="#005AFF"/>
<path d="M19.8226 35.9663C19.8226 35.9663 20.6131 31.4918 22.5864 31.4214C24.5597 31.3511 27.0136 33.7655 27.866 32.4156C28.7198 31.0658 30.2662 30.4977 33.4128 30.1432C36.5594 29.7875 35.2264 27.3731 37.1997 28.1549C39.173 28.9366 42.8525 34.6893 43.0123 35.9675" stroke="white" stroke-width="2" stroke-miterlimit="10" stroke-linecap="round" stroke-linejoin="round"/>
<path d="M40.5981 53.0207C40.5981 54.7389 42.1432 56.1302 44.049 56.1302C45.9549 56.1302 47.5 54.7376 47.5 53.0207C47.5 51.3039 45.9549 49.9113 44.049 49.9113C42.1418 49.9113 40.5981 51.3039 40.5981 53.0207Z" stroke="white" stroke-width="2" stroke-miterlimit="10" stroke-linecap="round" stroke-linejoin="round"/>
<path d="M10 35.9663H13.8654L20.8485 56.1314H23.2073L26.5646 49.3519" stroke="white" stroke-width="2" stroke-linecap="round" stroke-linejoin="round"/>
<path d="M17.0229 45.0848C17.0229 45.0848 37.9211 59.7474 46.2936 38.4498H14.726" stroke="white" stroke-width="2" stroke-miterlimit="10" stroke-linecap="round" stroke-linejoin="round"/>
</svg>
