<svg width="63" height="82" viewBox="0 0 63 82" fill="none" xmlns="http://www.w3.org/2000/svg">
<path d="M5 82C2.23857 82 -9.78513e-08 79.7614 -2.18557e-07 77L-3.36578e-06 5C-3.48648e-06 2.23858 2.23857 -9.78513e-08 5 -2.18557e-07L46.7537 -2.04367e-06C48.9741 -2.14073e-06 50.9286 1.46442 51.5523 3.5955L62.0889 39.5955C62.3573 40.5126 62.3573 41.4874 62.0889 42.4045L51.5523 78.4045C50.9286 80.5356 48.9741 82 46.7537 82L5 82Z" fill="#005AFF"/>
<path d="M42.8006 33.4408L27.2804 24.4803L11.7606 33.4404L11.76 51.3624L27.2802 60.3229L42.8008 51.3615L42.8006 33.4408Z" stroke="white" stroke-width="2" stroke-miterlimit="10" stroke-linecap="round" stroke-linejoin="round"/>
<path d="M37.8668 24.0648H16.6937L6.10712 42.4007L16.6937 60.7384H37.8668L48.4533 42.4007L37.8668 24.0648Z" stroke="white" stroke-width="2" stroke-miterlimit="10" stroke-linecap="round" stroke-linejoin="round"/>
<path d="M16.4533 34.8591L23.4542 50.8591L30.4533 34.8591" stroke="white" stroke-width="2" stroke-miterlimit="10" stroke-linecap="round" stroke-linejoin="round"/>
<path d="M34.4533 34.8591V50.8591" stroke="white" stroke-width="2" stroke-miterlimit="10" stroke-linecap="round" stroke-linejoin="round"/>
</svg>
