<svg width="48" height="32" viewBox="0 0 48 32" fill="none" xmlns="http://www.w3.org/2000/svg">
<path d="M31 16C31 7.716 24.282 1 15.999 1C7.715 1 1 7.716 1 16C1 24.285 7.715 31 15.999 31C24.282 31 31 24.285 31 16Z" stroke="#005AFF" stroke-width="2" stroke-miterlimit="10" stroke-linecap="round" stroke-linejoin="round"/>
<path d="M28.004 30.462C29.275 30.813 30.615 31 31.999 31C40.282 31 47 24.285 47 16C47 7.716 40.282 1 31.999 1C30.615 1 29.272 1.188 27.999 1.539" stroke="#005AFF" stroke-width="2" stroke-miterlimit="10" stroke-linecap="round" stroke-linejoin="round"/>
<path d="M20.004 30.462C21.275 30.813 22.615 31 23.999 31C32.282 31 39 24.285 39 16C39 7.716 32.282 1 23.999 1C22.615 1 21.272 1.188 19.999 1.539" stroke="#005AFF" stroke-width="2" stroke-miterlimit="10" stroke-linecap="round" stroke-linejoin="round"/>
<path d="M12.25 24V9.33301H17.5C19.525 9.33301 21.167 10.975 21.167 13C21.167 15.025 19.525 16.667 17.5 16.667H9" stroke="#005AFF" stroke-width="2" stroke-miterlimit="10" stroke-linecap="round" stroke-linejoin="round"/>
<path d="M9 21H16" stroke="#005AFF" stroke-width="2" stroke-miterlimit="10" stroke-linecap="round" stroke-linejoin="round"/>
</svg>
