<svg width="21" height="21" viewBox="0 0 21 21" fill="none" xmlns="http://www.w3.org/2000/svg">
<path d="M4.45455 15.6818C4.45455 16.1568 4.06591 16.5455 3.59091 16.5455H1.86364C1.38864 16.5455 1 16.1568 1 15.6818V12.2273C1 11.7523 1.38864 11.3636 1.86364 11.3636H3.59091C4.06591 11.3636 4.45455 11.7523 4.45455 12.2273V15.6818Z" stroke="#37455C" stroke-width="2" stroke-miterlimit="10" stroke-linecap="round" stroke-linejoin="round"/>
<path d="M1 12.2273V10.5" stroke="#37455C" stroke-width="2" stroke-miterlimit="10" stroke-linecap="round" stroke-linejoin="round"/>
<path d="M1 10.5C1 5.25773 5.25773 1 10.5 1C15.7509 1 20 5.25773 20 10.5" stroke="#37455C" stroke-width="2" stroke-miterlimit="10" stroke-linecap="round" stroke-linejoin="round"/>
<path d="M16.5455 15.6818C16.5455 16.1568 16.9341 16.5455 17.4091 16.5455H19.1364C19.6114 16.5455 20 16.1568 20 15.6818V12.2273C20 11.7523 19.6114 11.3636 19.1364 11.3636H17.4091C16.9341 11.3636 16.5455 11.7523 16.5455 12.2273V15.6818Z" stroke="#37455C" stroke-width="2" stroke-miterlimit="10" stroke-linecap="round" stroke-linejoin="round"/>
<path d="M20 12.2273V10.5" stroke="#37455C" stroke-width="2" stroke-miterlimit="10" stroke-linecap="round" stroke-linejoin="round"/>
<path d="M11.3636 19.1364H9.63632V20H11.3636V19.1364Z" stroke="#37455C" stroke-width="2" stroke-miterlimit="10" stroke-linecap="round" stroke-linejoin="round"/>
<path d="M19.9999 11.1391V17.4091L13.9545 20H11.1304" stroke="#37455C" stroke-width="2" stroke-miterlimit="10" stroke-linecap="round" stroke-linejoin="round"/>
</svg>
