<svg width="36" height="49" viewBox="0 0 36 49" fill="none" xmlns="http://www.w3.org/2000/svg">
<path d="M35 29.1348C35 31.2009 27.5553 32.8742 18.3706 32.8742C9.18581 32.8742 1.74109 31.2009 1.74109 29.1348" stroke="#37455C" stroke-width="2" stroke-miterlimit="10" stroke-linecap="round" stroke-linejoin="round"/>
<path d="M35 1.37358C35 -0.692502 1.74109 6.39058 1.74109 8.45667V12.079V29.1353" stroke="#37455C" stroke-width="2" stroke-miterlimit="10" stroke-linecap="round" stroke-linejoin="round"/>
<path d="M35 1.37305V29.1348" stroke="#37455C" stroke-width="2" stroke-miterlimit="10" stroke-linecap="round" stroke-linejoin="round"/>
<path d="M1.74109 8.45613C1.74109 12.9692 35 7.86328 35 1.37305" stroke="#37455C" stroke-width="2" stroke-miterlimit="10" stroke-linecap="round" stroke-linejoin="round"/>
<path d="M31.8075 44.0898C31.8075 45.7587 25.7916 47.1119 18.3706 47.1119C10.9495 47.1119 4.93359 45.7587 4.93359 44.0898" stroke="#37455C" stroke-width="2" stroke-miterlimit="10" stroke-linecap="round" stroke-linejoin="round"/>
<path d="M4.93359 31.3379V44.0901" stroke="#37455C" stroke-width="2" stroke-miterlimit="10" stroke-linecap="round" stroke-linejoin="round"/>
<path d="M31.8076 31.332V44.0902" stroke="#37455C" stroke-width="2" stroke-miterlimit="10" stroke-linecap="round" stroke-linejoin="round"/>
<path d="M8.63593 42.0225V38.6299" stroke="#37455C" stroke-width="2" stroke-miterlimit="10" stroke-linecap="round" stroke-linejoin="round"/>
<path d="M13.5032 38.9722V35.5781" stroke="#37455C" stroke-width="2" stroke-miterlimit="10" stroke-linecap="round" stroke-linejoin="round"/>
<path d="M13.5032 42.9297V41.9277" stroke="#37455C" stroke-width="2" stroke-miterlimit="10" stroke-linecap="round" stroke-linejoin="round"/>
<path d="M23.1964 42.9297V41.9277" stroke="#37455C" stroke-width="2" stroke-miterlimit="10" stroke-linecap="round" stroke-linejoin="round"/>
<path d="M23.1964 38.9722V35.5781" stroke="#37455C" stroke-width="2" stroke-miterlimit="10" stroke-linecap="round" stroke-linejoin="round"/>
<path d="M28.0207 42.0225V38.6299" stroke="#37455C" stroke-width="2" stroke-miterlimit="10" stroke-linecap="round" stroke-linejoin="round"/>
<path d="M18.3705 42.0225V38.6299" stroke="#37455C" stroke-width="2" stroke-miterlimit="10" stroke-linecap="round" stroke-linejoin="round"/>
</svg>
